<?xml version="1.0" standalone="no"?>
<!DOCTYPE svg PUBLIC "-//W3C//DTD SVG 1.1//EN" "http://www.w3.org/Graphics/SVG/1.1/DTD/svg11.dtd" >
<svg xmlns="http://www.w3.org/2000/svg">
<metadata>Generated by IcoMoon</metadata>
<defs>
<font id="Egencia-Icons" horiz-adv-x="2048">
<font-face units-per-em="2048" ascent="1781.76" descent="-266.24" />
<missing-glyph horiz-adv-x="2048" />
<glyph unicode="&#x20;" horiz-adv-x="0" d="" />
<glyph unicode="&#xe000;" glyph-name="flightsalt" d="M1517.966 972.004c349.554 345.6 512.598 565.96 513.024 693.248 0.114 31.688-9.984 57.856-29.952 77.852-19.684 19.712-45.682 29.696-77.198 29.696 0 0 0 0-0.028 0-127.544 0-356.494-166.742-699.818-509.724l-1012.736 170.98c-23.894 4.010-47.816-3.784-64.712-20.68l-118.158-118.158c-8.136-8.136-11.576-19.712-9.244-30.976 2.36-11.264 10.154-20.48 20.85-24.69l843.946-331.434-38.002-40.874c-95.83-103.338-240.498-268.744-347.022-391.652l-301.34 66.844c-25.002 5.49-50.83-2.36-68.408-19.912l-94.236-94.152c-7.652-7.652-11.178-18.176-9.614-28.9s7.908-19.826 17.408-25.002l375.552-204.060 209.55-381.156c10.41-18.944 39.026-22.87 54.13-7.31l90.88 93.468c17.294 17.778 24.52 42.838 19.37 67.128l-65.11 305.352c102.258 87.496 282.766 243.286 390.6 343.894l44.43 41.416 331.634-848.44c5.092-13.17 17.522-21.646 31.688-21.646 9.074 0 17.636 3.556 24.064 10.012l120.974 121.514c16.868 16.924 24.548 41.13 20.536 64.74l-173.056 1012.622z" />
<glyph unicode="&#xe001;" glyph-name="flights" d="M1517.966 972.004c349.554 345.6 512.626 565.96 513.024 693.248 0.114 31.688-9.984 57.856-29.952 77.852-19.684 19.712-45.682 29.696-77.198 29.696 0 0 0 0-0.028 0-127.544 0-356.494-166.742-699.818-509.724l-1012.736 170.98c-23.894 4.010-47.844-3.784-64.712-20.68l-118.158-118.158c-8.136-8.136-11.576-19.712-9.244-30.976 2.36-11.264 10.154-20.48 20.85-24.69l843.946-331.434-38.002-40.874c-95.83-103.338-240.498-268.744-347.022-391.652l-301.34 66.844c-25.002 5.49-50.83-2.36-68.408-19.912l-94.236-94.152c-7.652-7.652-11.178-18.176-9.614-28.9s7.908-19.826 17.408-25.002l375.552-204.060 209.55-381.156c10.41-18.944 39.026-22.87 54.13-7.31l90.88 93.468c17.294 17.778 24.52 42.838 19.37 67.128l-65.11 305.352c102.258 87.496 282.766 243.286 390.6 343.894l44.43 41.416 331.634-848.44c5.092-13.17 17.522-21.646 31.688-21.646 9.074 0 17.636 3.556 24.064 10.012l120.974 121.514c16.868 16.924 24.548 41.13 20.536 64.74l-173.056 1012.622zM1626.026-61.184l-89.912-90.34-349.212 893.468-111.986-104.392c-109.284-101.944-294.286-261.462-394.838-347.448l-22.044-18.858 72.846-341.788c0.796-3.754-0.312-7.652-2.958-10.382l-63.83-65.65-199.708 363.292-357.974 194.474 67.044 66.958c2.218 2.19 5.148 3.272 10.552 3.072l337.778-74.98 19.030 22.016c87.41 100.92 249.258 286.578 351.062 396.344l100.664 108.202-888.86 349.042 87.21 87.21c2.19 2.19 5.006 3.384 9.956 3.158l1044.65-176.384 17.806 17.806c409.942 410.34 585.444 496.47 660.508 496.47 19.342 0 28.018-6.456 32.882-11.32 7.936-7.964 11.606-18.546 11.576-33.308-0.256-73.642-87.126-246.87-499.57-653.994l-18.034-17.834 178.488-1044.906c0.654-3.612-0.54-7.338-3.128-9.928z" />
<glyph unicode="&#xe002;" glyph-name="hotelsalt" d="M1971.2-65.422c11.378 0 19.912-8.534 19.912-19.912v-150.756c0-11.378-8.534-19.912-19.912-19.912h-1894.4c-11.378 0-19.912 8.534-19.912 19.912v150.756c0 11.378 8.534 19.912 19.912 19.912h1894.4zM651.378 1393.778h-216.178c-11.378 0-19.912-8.534-19.912-19.912v-216.178c0-14.222 8.534-19.912 19.912-19.912h216.178c11.378 0 19.912 8.534 19.912 19.912v216.178c0 11.378-8.534 19.912-19.912 19.912zM1143.466 1393.778h-216.178c-11.378 0-19.912-8.534-19.912-19.912v-216.178c0-11.378 8.534-19.912 19.912-19.912h216.178c11.378 0 19.912 8.534 19.912 19.912v216.178c0 11.378-8.534 19.912-19.912 19.912zM1632.712 1393.778h-216.178c-11.378 0-19.912-8.534-19.912-19.912v-216.178c0-11.378 8.534-19.912 19.912-19.912h216.178c11.378 0 19.912 8.534 19.912 19.912v216.178c2.844 11.378-8.534 19.912-19.912 19.912zM645.688 952.888h-201.956c-19.912 0-28.444-8.534-28.444-19.912v-216.178c0-11.378 8.534-19.912 19.912-19.912h216.178c11.378 0 19.912 8.534 19.912 19.912v216.178c0 8.534-5.688 19.912-25.6 19.912zM1143.466 952.888h-216.178c-11.378 0-22.756-8.534-22.756-19.912v-216.178c0-11.378 8.534-19.912 19.912-19.912h216.178c11.378 0 19.912 8.534 19.912 19.912v216.178c2.844 8.534-5.688 19.912-17.066 19.912zM1629.866 952.888h-216.178c-11.378 0-19.912-8.534-19.912-19.912v-216.178c0-11.378 8.534-19.912 19.912-19.912h216.178c11.378 0 19.912 8.534 19.912 19.912v216.178c2.844 14.222-8.534 19.912-19.912 19.912zM651.378 509.156h-216.178c-11.378 0-19.912-8.534-19.912-19.912v-216.178c0-11.378 8.534-19.912 19.912-19.912h216.178c11.378 0 19.912 8.534 19.912 19.912v216.178c0 11.378-8.534 19.912-19.912 19.912zM1632.712 506.312h-216.178c-11.378 0-19.912-8.534-19.912-19.912v-216.178c0-11.378 8.534-19.912 19.912-19.912h216.178c11.378 0 19.912 8.534 19.912 19.912v216.178c2.844 11.378-8.534 19.912-19.912 19.912zM1883.022 1570.134v-1530.312c0-11.378-8.534-19.912-19.912-19.912h-711.112v386.844c0 68.266-59.734 125.156-130.844 116.622-62.578-5.688-105.244-62.578-105.244-122.312v-384h-728.178c-11.378 0-19.912 8.534-19.912 19.912v1561.6h-91.022c-11.378 0-22.756 11.378-22.756 22.756v128c0 22.756 19.912 42.666 42.666 42.666h1854.578c22.756 0 42.666-19.912 42.666-42.666v-128c0-11.378-8.534-19.912-19.912-19.912h-91.022c0-2.844 0-31.288 0-31.288z" />
<glyph unicode="&#xe003;" glyph-name="hotels" d="M605.128 1172.054h-146.204c-11.606 0-20.992 9.416-20.992 20.992v146.204c0 11.606 9.416 20.992 20.992 20.992h146.204c11.606 0 20.992-9.416 20.992-20.992v-146.204c0-11.576-9.386-20.992-20.992-20.992zM403.57 1415.624c-11.606 0-20.992-9.416-20.992-20.992v-256.91c0-11.606 9.416-20.992 20.992-20.992h256.91c11.606 0 20.992 9.416 20.992 20.992v256.91c0 11.606-9.416 20.992-20.992 20.992 0 0-256.91 0-256.91 0zM1096.42 1172.054h-146.204c-11.606 0-20.992 9.416-20.992 20.992v146.204c0 11.606 9.416 20.992 20.992 20.992h146.204c11.606 0 20.992-9.416 20.992-20.992v-146.204c0-11.576-9.386-20.992-20.992-20.992zM894.862 1415.624c-11.606 0-20.992-9.416-20.992-20.992v-256.91c0-11.606 9.416-20.992 20.992-20.992h256.91c11.606 0 20.992 9.416 20.992 20.992v256.91c0 11.606-9.416 20.992-20.992 20.992 0 0-256.91 0-256.91 0zM1587.712 1172.054h-146.204c-11.606 0-20.992 9.416-20.992 20.992v146.204c0 11.606 9.416 20.992 20.992 20.992h146.204c11.606 0 20.992-9.416 20.992-20.992v-146.204c0-11.576-9.386-20.992-20.992-20.992zM1386.154 1415.624c-11.606 0-20.992-9.416-20.992-20.992v-256.91c0-11.606 9.416-20.992 20.992-20.992h256.91c11.606 0 20.992 9.416 20.992 20.992v256.91c0 11.606-9.416 20.992-20.992 20.992 0 0-256.91 0-256.91 0zM605.128 700.7h-146.204c-11.606 0-20.992 9.416-20.992 20.992v146.204c0 11.606 9.416 20.992 20.992 20.992h146.204c11.606 0 20.992-9.416 20.992-20.992v-146.204c0-11.576-9.386-20.992-20.992-20.992zM403.57 944.242c-11.606 0-20.992-9.416-20.992-20.992v-256.91c0-11.606 9.416-20.992 20.992-20.992h256.91c11.606 0 20.992 9.416 20.992 20.992v256.91c0 11.606-9.416 20.992-20.992 20.992h-256.91zM1096.42 700.7h-146.204c-11.606 0-20.992 9.416-20.992 20.992v146.204c0 11.606 9.416 20.992 20.992 20.992h146.204c11.606 0 20.992-9.416 20.992-20.992v-146.204c0-11.576-9.386-20.992-20.992-20.992zM894.862 944.242c-11.606 0-20.992-9.416-20.992-20.992v-256.91c0-11.606 9.416-20.992 20.992-20.992h256.91c11.606 0 20.992 9.416 20.992 20.992v256.91c0 11.606-9.416 20.992-20.992 20.992h-256.91zM1587.712 700.7h-146.204c-11.606 0-20.992 9.416-20.992 20.992v146.204c0 11.606 9.416 20.992 20.992 20.992h146.204c11.606 0 20.992-9.416 20.992-20.992v-146.204c0-11.576-9.386-20.992-20.992-20.992zM1386.154 944.242c-11.606 0-20.992-9.416-20.992-20.992v-256.91c0-11.606 9.416-20.992 20.992-20.992h256.91c11.606 0 20.992 9.416 20.992 20.992v256.91c0 11.606-9.416 20.992-20.992 20.992h-256.91zM605.098 229.348h-146.204c-11.606 0-20.992 9.416-20.992 20.992v146.204c0 11.606 9.416 20.992 20.992 20.992h146.204c11.606 0 20.992-9.416 20.992-20.992v-146.204c0-11.606-9.386-20.992-20.992-20.992zM403.542 472.888c-11.606 0-20.992-9.416-20.992-20.992v-256.91c0-11.606 9.416-20.992 20.992-20.992h256.91c11.606 0 20.992 9.416 20.992 20.992v256.91c0 11.606-9.416 20.992-20.992 20.992h-256.91zM1587.712 228.124h-146.204c-11.606 0-20.992 9.416-20.992 20.992v146.204c0 11.606 9.416 20.992 20.992 20.992h146.204c11.606 0 20.992-9.416 20.992-20.992v-146.204c0-11.606-9.386-20.992-20.992-20.992zM1386.154 471.666c-11.606 0-20.992-9.416-20.992-20.992v-256.91c0-11.606 9.416-20.992 20.992-20.992h256.91c11.606 0 20.992 9.416 20.992 20.992v256.91c0 11.606-9.416 20.992-20.992 20.992h-256.91zM842.696 351.118c0 99.556 81.010 180.594 180.594 180.594s180.594-81.038 180.594-180.594v-302.678h622.734v1494.472h-1605.206v-1494.5h621.284v302.706zM904.96 48.44h236.63v302.678c0 65.252-53.078 118.328-118.3 118.328-65.252 0-118.3-53.078-118.3-118.328v-302.678h-0.028zM1881.942 48.44h89.714c11.606 0 20.992-9.386 20.992-20.992v-242.46c0-22.614-18.346-40.96-40.96-40.96h-1855.374c-22.614 0-40.96 18.346-40.96 40.96v242.46c0 11.606 9.386 20.992 20.992 20.992h89.714v1494.472h-89.714c-11.606 0-20.992 9.386-20.992 20.992v186.112c0 23.182 18.802 41.984 41.984 41.984h1853.298c23.182 0 41.984-18.802 41.984-41.984v-186.084c0-11.606-9.386-20.992-20.992-20.992h-89.714v-1494.5h0.028zM110.706 1598.264h1826.588v117.39c0 11.606-9.416 20.992-20.992 20.992h-1784.604c-11.606 0-20.992-9.416-20.992-20.992 0 0 0-117.39 0-117.39zM131.186-200.648h1785.656c11.32 0 20.48 9.16 20.48 20.48v173.256h-1826.616v-173.256c0-11.32 9.16-20.48 20.48-20.48z" />
<glyph unicode="&#xe004;" glyph-name="carsalt" d="M469.334 732.444c-76.8 0-139.378-62.578-139.378-139.378s62.578-139.378 139.378-139.378c76.8 0 139.378 62.578 139.378 139.378s-62.578 139.378-139.378 139.378zM1595.734 735.288c-76.8 0-139.378-62.578-139.378-139.378s62.578-139.378 139.378-139.378c76.8 0 139.378 62.578 139.378 139.378s-62.578 139.378-139.378 139.378zM1450.666 89.6h-833.422v-116.622c0-39.822-34.134-73.956-73.956-73.956h-412.444c-42.666 0-73.956 34.134-73.956 73.956v694.044c0 17.066 2.844 31.288 8.534 48.356l79.644 213.334h-125.156c-11.378 0-19.912 8.534-19.912 19.912v179.2c0 11.378 8.534 19.912 19.912 19.912h190.578l119.466 426.666c5.688 36.978 36.978 62.578 73.956 62.578h1260.088c36.978 0 68.266-28.444 73.956-62.578l108.088-426.666h182.044c11.378 0 19.912-8.534 19.912-19.912v-179.2c0-11.378-8.534-19.912-19.912-19.912h-116.622l91.022-210.488c8.534-17.066 11.378-34.134 11.378-54.044v-691.2c0-39.822-34.134-73.956-73.956-73.956h-412.444c-39.822 0-73.956 34.134-73.956 73.956l-2.844 116.622zM1567.288 1449.244h-1063.822c-8.534 0-17.066-5.688-19.912-14.222l-68.266-349.866c-2.844-11.378 5.688-25.6 19.912-25.6h1197.512c14.222 0 22.756 11.378 19.912 25.6l-65.422 349.866c-2.844 5.688-11.378 14.222-19.912 14.222v0z" />
<glyph unicode="&#xe005;" glyph-name="cars" d="M1533.156 1386.666l48.356-290.134h-1095.112l51.2 290.134h995.556zM1567.288 1449.244h-1063.822c-8.534 0-17.066-5.688-19.912-14.222l-68.266-378.312c-2.844-11.378 5.688-25.6 19.912-25.6h1197.512c14.222 0 22.756 11.378 19.912 25.6l-65.422 378.312c-2.844 5.688-11.378 14.222-19.912 14.222v0zM469.334 760.888c76.8 0 139.378-62.578 139.378-139.378s-62.578-139.378-139.378-139.378-139.378 62.578-139.378 139.378 62.578 139.378 139.378 139.378zM469.334 823.466c-110.934 0-201.956-91.022-201.956-201.956s91.022-201.956 201.956-201.956 201.956 91.022 201.956 201.956-91.022 201.956-201.956 201.956v0zM1595.734 763.734c76.8 0 139.378-62.578 139.378-139.378s-62.578-139.378-139.378-139.378-139.378 62.578-139.378 139.378 62.578 139.378 139.378 139.378zM1595.734 826.312c-110.934 0-201.956-91.022-201.956-201.956s91.022-201.956 201.956-201.956 201.956 91.022 201.956 201.956-91.022 201.956-201.956 201.956v0zM119.466 118.044v-145.066c0-5.688 5.688-11.378 11.378-11.378h412.444c5.688 0 11.378 5.688 11.378 11.378v145.066h-435.2zM1450.666 118.044h-833.422v-145.066c0-39.822-34.134-73.956-73.956-73.956h-412.444c-42.666 0-73.956 34.134-73.956 73.956v722.488c0 17.066 2.844 31.288 8.534 48.356l79.644 184.888h-125.156c-11.378 0-19.912 8.534-19.912 19.912v207.644c0 11.378 8.534 19.912 19.912 19.912h190.578l119.466 398.222c5.688 36.978 36.978 62.578 73.956 62.578h1260.088c36.978 0 68.266-28.444 73.956-62.578l108.088-398.222h182.044c11.378 0 19.912-8.534 19.912-19.912v-207.644c0-11.378-8.534-19.912-19.912-19.912h-116.622l91.022-182.044c8.534-17.066 11.378-34.134 11.378-54.044v-719.644c0-39.822-34.134-73.956-73.956-73.956h-412.444c-39.822 0-73.956 34.134-73.956 73.956l-2.844 145.066zM1513.244 118.044c0 0 0-145.066 0-145.066 0-5.688 5.688-11.378 11.378-11.378h412.444c5.688 0 11.378 5.688 11.378 11.378v145.066h-435.2zM116.622 180.622h1831.822v512c0 8.534-2.844 19.912-5.688 28.444l-128 270.222h147.912c11.378 0 19.912 8.534 19.912 19.912v85.334c0 11.378-8.534 19.912-19.912 19.912h-170.666l-116.622 449.422c0 5.688-5.688 8.534-11.378 8.534h-1262.934c-2.844 0-11.378-5.688-11.378-11.378v-2.844l-130.844-443.734h-176.356c-11.378 0-19.912-8.534-19.912-19.912v-82.488c0-11.378 8.534-19.912 19.912-19.912h150.756l-113.778-270.222c-2.844-8.534-5.688-17.066-5.688-25.6v-517.688h2.844z" />
<glyph unicode="&#xe006;" glyph-name="trainalt" d="M782.222 497.778h-486.4c-11.378 0-19.912 11.378-19.912 22.756l17.066 153.6c0 8.534 8.534 17.066 19.912 17.066h469.334c31.288 0 54.044-19.912 54.044-48.356v-96.712c0-25.6-25.6-48.356-54.044-48.356zM304.356 213.334l-287.288-449.422h233.244l59.734 82.488h1430.756l54.044-82.488h236.088l-290.134 446.578c51.2 11.378 99.556 39.822 136.534 82.488 51.2 59.734 73.956 139.378 62.578 216.178l-159.288 1041.066c-19.912 130.844-128 224.712-258.844 224.712h-978.488c-130.844 0-238.934-93.866-258.844-224.712l-159.288-1041.066c-11.378-76.8 11.378-156.444 62.578-216.178 28.444-34.134 73.956-62.578 116.622-79.644zM412.444 11.378l128 193.422h967.112l128-193.422h-1223.112zM1794.844 520.534c0-14.222-8.534-22.756-19.912-22.756h-477.866c-25.6 0-48.356 19.912-48.356 48.356v96.712c0 25.6 19.912 48.356 48.356 48.356h460.8c11.378 0 19.912-5.688 19.912-17.066l17.066-153.6zM1524.622 1595.734c42.666 0 76.8-31.288 82.488-73.956l79.644-526.222c2.844-11.378-8.534-22.756-19.912-22.756h-1265.778c-11.378 0-22.756 11.378-19.912 22.756l79.644 526.222c5.688 42.666 42.666 73.956 82.488 73.956h981.334z" />
<glyph unicode="&#xe007;" glyph-name="train" d="M200.818-227.556l94.152 142.222h1457.494l94.038-142.222h-65.706l-58.538 85.334h-1397.048l-58.596-85.334h-65.792zM1863.68 492.686c-0.2 7.254-0.854 14.99-1.962 22.272l-16.81 110.648h-535.012v-132.92h553.784zM205.142 492.686h569.116v132.92h-549.916l-17.152-110.25c-1.166-7.652-1.848-15.048-2.048-22.67zM780.26 432.782h-566.67c7.082-22.102 18.546-42.212 33.962-60.188 32.342-37.718 78.962-59.336 127.944-59.336h1317.802c48.896 0 95.516 21.56 127.83 59.192 15.16 17.636 26.51 38.656 33.65 60.33h-554.552c-27.676 0-50.232 22.528-50.232 50.232v152.234c0 27.676 22.528 50.232 50.232 50.232h535.694l-26.312 172.516h-1549.624l-26.482-172.516h546.76c29.752 0 53.93-22.528 53.93-50.232v-152.234c0-27.676-24.206-50.232-53.93-50.232zM1800.648 917.020l-99.442 654.762c-13.056 85.704-83.854 147.882-168.392 147.882h-994.39c-84.366 0-155.136-62.038-168.334-147.484l-100.864-655.16h1531.42zM1470.776 249.856h-894.122l-107.748-167.31h1109.76l-107.89 167.31zM0-227.442l311.694 484.95c-39.338 13.226-84.424 41.358-112.27 73.814-45.682 53.248-65.678 123.848-54.926 193.706l162.902 1056.824c17.976 116.622 115.144 201.272 230.998 201.272h994.39c116.11 0 213.334-84.85 231.082-201.784l160.512-1056.824c10.61-69.774-9.5-140.232-55.154-193.366-35.128-40.846-80.384-67.528-132.040-77.056l310.812-481.422h-66.816l-312.292 477.184h-132.864l146.148-223.688h-1316.95l144.014 223.688h-133.746l-309.248-477.298h-66.248z" />
<glyph unicode="&#xe008;" glyph-name="taxialt" d="M468.508 549.86c-76.572 0-138.866-62.294-138.866-138.866s62.294-138.866 138.866-138.866c76.572 0 138.866 62.294 138.866 138.866s-62.294 138.866-138.866 138.866zM1596.274 551.082c-76.572 0-138.866-62.294-138.866-138.866s62.294-138.866 138.866-138.866c76.572 0 138.866 62.294 138.866 138.866s-62.294 138.866-138.866 138.866zM1451.946-65.622h-835.698l0.512-115.74c0-41.16-33.48-74.638-74.61-74.638h-412.16c-41.386 0-75.264 33.878-75.264 75.264v665.628c0 16.27 2.93 32.398 8.618 47.616l80.412 186.056h-123.562c-11.15 0-20.196 9.046-20.196 20.196v179.542c0 11.15 9.046 20.196 20.196 20.196h189.668l119.324 511.602c6.172 35.954 37.746 63.688 73.244 63.772h1261.312c36.836 0 68.552-27.364 73.928-63.63l108.63-511.716h181.504c11.15 0 20.196-9.046 20.196-20.196v-179.542c0-11.15-9.046-20.196-20.196-20.196h-115.968l90.226-183.296c7.14-16.726 10.808-34.73 10.808-52.936l0.37-663.694c0-41.16-33.48-74.638-74.638-74.638h-412.046c-41.216 0-74.638 33.422-74.638 74.638v115.712zM1567.402 1322.184h-1064.106c-9.33 0-17.464-6.4-19.656-15.502l-97.336-462.28c-3.044-12.686 6.57-24.918 19.656-24.918h1255.708c13 0 22.614 12.088 19.684 24.776l-94.264 462.28c-2.134 9.16-10.296 15.644-19.684 15.644v0zM636.074 1746.744c-15.19-55.78-38.884-143.274-38.884-143.274h853.646c0 0-23.694 87.496-38.884 143.274-7.31 26.738-31.574 45.256-59.278 45.256h-657.352c-27.704 0-51.968-18.518-59.25-45.256z" />
<glyph unicode="&#xe009;" glyph-name="taxi" d="M1532.33 1287.48l76.772-376.406h-1150.236l79.274 376.406h994.19zM1567.402 1350.628h-1064.106c-9.33 0-17.464-6.4-19.656-15.502l-97.336-462.28c-3.044-12.686 6.57-24.918 19.656-24.918h1255.708c13 0 22.614 12.088 19.684 24.776l-94.264 462.28c-2.134 9.16-10.296 15.644-19.684 15.644v0zM468.508 606.748c76.572 0 138.866-62.294 138.866-138.866s-62.294-138.866-138.866-138.866-138.866 62.294-138.866 138.866 62.294 138.866 138.866 138.866zM468.508 669.866c-111.56 0-201.984-90.424-201.984-201.984s90.424-201.984 201.984-201.984 201.984 90.424 201.984 201.984-90.424 201.984-201.984 201.984v0zM1596.274 607.972c76.572 0 138.866-62.294 138.866-138.866s-62.294-138.866-138.866-138.866c-76.572 0-138.866 62.294-138.866 138.866s62.294 138.866 138.866 138.866zM1596.274 671.090c-111.56 0-201.984-90.424-201.984-201.984s90.424-201.984 201.984-201.984 201.984 90.424 201.984 201.984-90.424 201.984-201.984 201.984v0zM1322.524-2.504h627.228v484.836c0 9.672-1.962 19.256-5.746 28.188l-127.658 299.634h148.338c11.15 0 20.196 9.046 20.196 20.196v53.304c0 11.15-9.046 20.196-20.196 20.196h-169.5l-119.95 565.56c-0.824 5.49-5.802 9.814-11.35 9.814h-1261.426c-3.64 0-10.012-5.12-11.208-12.174l-0.626-2.958-130.646-560.27h-176.64c-11.15 0-20.196-9.046-20.196-20.196v-53.304c0-11.15 9.046-20.196 20.196-20.196h151.552l-112.44-299.776c-3.044-8.106-4.58-16.668-4.58-25.316v-487.51h624.526v168.96c0 28.956 23.552 52.48 52.48 52.48h475.164c28.956 0 52.48-23.524 52.48-52.48v-168.988zM1258.524-2.504v157.44h-452.124v-157.44h452.124zM553.642-65.622h-435.172v-115.74c0-6.372 5.176-11.52 11.52-11.52h412.16c6.344 0 11.492 5.176 11.492 11.52v115.74zM1514.126-181.362c0-6.344 5.148-11.52 11.52-11.52h412.046c6.344 0 11.52 5.148 11.52 11.52v115.74h-435.086v-115.74zM1399.466 1730.844h-750.934c-0.598-1.080-1.28-2.646-1.848-4.694l-49.494-183.836h853.646l-49.494 183.836c-0.598 2.048-1.28 3.612-1.878 4.694zM584.904 1742.848c8.392 31.062 31.858 51.996 58.254 51.996h761.686c26.424 0 49.864-20.936 58.254-51.996l53.674-200.534h146.972c36.836 0 68.552-27.364 73.928-63.63l108.63-511.716h181.504c11.15 0 20.196-9.046 20.196-20.196v-179.542c0-11.15-9.046-20.196-20.196-20.196h-115.968l90.226-211.74c7.14-16.726 10.808-34.73 10.808-52.936l0.37-663.694c0-41.16-33.48-74.638-74.638-74.638h-412.046c-41.216 0-74.638 33.422-74.638 74.638v115.74h-835.698l0.512-115.74c0-41.16-33.48-74.638-74.61-74.638h-412.132c-41.386 0-75.264 33.878-75.264 75.264v665.6c0 16.27 2.93 32.398 8.618 47.616l80.412 214.5h-123.562c-11.15 0-20.196 9.046-20.196 20.196v179.542c0 11.15 9.046 20.196 20.196 20.196h189.668l119.324 511.602c6.172 35.954 37.746 63.688 73.244 63.772h127.658l54.812 200.534z" />
<glyph unicode="&#xe00a;" glyph-name="busalt" d="M1717.618-187.62v150.158c47.844 16.81 77 62.152 77 115.74v1583.9c0 67.868-55.012 122.88-122.88 122.88h-1295.502c-67.868 0-122.88-55.012-122.88-122.88v-1583.9c0-54.898 43.776-100.38 93.412-116.168v-149.020c0-33.934 27.506-61.44 61.44-61.44h326.486c33.934 0 61.44 27.506 61.44 61.44v143.274l472.604-0.712v-143.274c0-33.792 27.648-61.44 61.44-61.44h326.030c33.934 0 61.44 27.506 61.44 61.44zM1085.156 607.516v614.712c0 11.32 9.16 20.48 20.48 20.48h519.168c11.32 0 20.48-9.16 20.48-20.48v-614.712c0-11.32-9.16-20.48-20.48-20.48h-519.168c-11.292 0-20.48 9.16-20.48 20.48zM402.688 607.516v614.712c0 11.32 9.16 20.48 20.48 20.48h520.618c11.32 0 20.48-9.16 20.48-20.48v-614.712c0-11.32-9.16-20.48-20.48-20.48h-520.618c-11.292 0-20.48 9.16-20.48 20.48zM558.392 1450.268c-11.32 0-20.48 9.188-20.48 20.48v96.712c0 11.32 9.16 20.48 20.48 20.48h931.214c11.32 0 20.48-9.16 20.48-20.48v-96.712c0-11.32-9.16-20.48-20.48-20.48h-931.214zM650.866 428.402c76.572 0 138.866-62.294 138.866-138.866s-62.294-138.866-138.866-138.866-138.866 62.294-138.866 138.866c0 76.544 62.294 138.866 138.866 138.866zM1425.578 428.402c76.572 0 138.866-62.294 138.866-138.866s-62.294-138.866-138.866-138.866-138.866 62.294-138.866 138.866c0 76.544 62.294 138.866 138.866 138.866z" />
<glyph unicode="&#xe00b;" glyph-name="bus" d="M1518.052 1364.936h-988.104c-26.994 0-48.924 21.93-48.924 48.924v153.6c0 26.966 21.93 48.924 48.924 48.924h988.104c26.966 0 48.924-21.93 48.924-48.924v-153.6c0-26.966-21.96-48.924-48.924-48.924zM537.912 1421.824h972.174v137.672h-972.174v-137.672zM1671.766 1785.060h-1295.502c-67.868 0-122.88-55.012-122.88-122.88v-1583.9c0-54.898 43.776-100.38 93.412-116.168v-117.020c0-51.512 41.898-93.44 93.44-93.44h262.372c51.512 0 93.554 41.898 93.554 93.44v111.274h472.604v-111.986c0-51.512 42.24-93.44 93.782-93.44h262.372c51.484 0 92.728 41.898 92.728 93.44v118.158c47.844 16.81 77 62.152 77 115.74v1583.9c0 67.868-55.012 122.88-122.88 122.88zM317.354 1185.82h675.356v-570.34h-675.356v570.34zM732.132-154.908c0-16.214-13.34-29.44-29.554-29.44h-262.372c-16.242 0-29.44 13.226-29.44 29.44v111.274h321.366v-111.274zM1654.556-155.62c0-16.214-13.426-29.44-29.668-29.44h-262.372c-16.214 0-29.696 13.226-29.696 29.44v110.706h321.736v-110.706zM1730.646 78.28c0-32.456-26.424-58.88-58.88-58.88h-1295.53c-32.456 0-58.88 26.424-58.88 58.88v473.202h1413.29v-473.202zM1056.712 615.48v570.34h673.906v-570.34h-673.906zM1730.646 1249.962h-1413.29v412.216c0 32.456 26.424 58.88 58.88 58.88h1295.53c32.456 0 58.88-26.424 58.88-58.88v-412.216zM679.31 114.916c-94.208 0-170.866 76.63-170.866 170.866s76.658 170.866 170.866 170.866c94.208 0 170.866-76.63 170.866-170.866s-76.658-170.866-170.866-170.866zM679.31 392.648c-58.908 0-106.866-47.958-106.866-106.866s47.958-106.866 106.866-106.866c58.936 0 106.866 47.958 106.866 106.866s-47.928 106.866-106.866 106.866zM1397.134 114.916c-94.208 0-170.866 76.63-170.866 170.866s76.63 170.866 170.866 170.866 170.866-76.63 170.866-170.866-76.63-170.866-170.866-170.866zM1397.134 392.648c-58.908 0-106.866-47.958-106.866-106.866s47.958-106.866 106.866-106.866 106.866 47.958 106.866 106.866-47.958 106.866-106.866 106.866z" />
<glyph unicode="&#xe00c;" glyph-name="plane-filled" d="M544.682-166.57c-14.592-0.028-24.406 14.934-18.546 28.302l322.532 736.398-49.75 1.736c-127.972 4.438-332.828 19.512-449.052 28.558l-159.914-246.556c-3.726-5.746-10.070-11.378-16.896-11.492h-152.548c-13.568-0.2-23.466 12.8-19.684 25.828l109.226 376.036-109.198 369.124c-3.84 12.942 5.888 25.942 19.37 25.942l155.534-0.086c6.998 0 13.512-3.584 17.266-9.472l156.53-245.816c116.992 8.362 323.1 22.414 451.612 27.278l45.482 1.65-319.8 733.44c-5.832 13.34 3.954 28.274 18.518 28.274h185.544c6.628 0 12.856-3.214 16.696-8.618l528.982-743.88c526.25-0.312 771.414-58.794 771.414-183.978 0-121.856-231.736-178.602-729.316-178.602-13.398 0-26.88 0.028-40.334 0.114l-527.644-745.102c-3.84-5.404-10.040-8.618-16.668-8.648l-189.354-0.426z" />
<glyph unicode="&#xe00d;" glyph-name="plane-outline" d="M317.298 694.272l29.098-2.248c114.518-8.932 325.832-24.576 454.684-29.042l142.678-4.978-333.398-761.288 101.546 0.228 533.93 753.976 25.6-0.142c15.786-0.114 31.602-0.17 47.274-0.17 491.178 0 666.168 59.648 666.168 115.484 0 20.168-34.36 120.832-712.534 120.832l-28.074-0.028-14.82 20.536-520.534 731.99h-98.020l330.666-758.358-138.040-4.978c-130.504-4.92-342.84-19.484-457.814-27.734l-29.184-2.104-164.182 257.848-74.638 0.028 98.134-331.72-98.218-338.090 71.766 1.024 167.908 258.93zM544.682-166.57c-14.592-0.028-24.406 14.934-18.546 28.302l322.532 736.398-49.75 1.736c-127.972 4.438-332.828 19.512-449.052 28.558l-159.914-246.556c-3.726-5.746-10.070-11.378-16.896-11.492h-152.548c-13.568-0.2-23.466 12.8-19.684 25.828l109.226 376.036-109.198 369.124c-3.84 12.942 5.888 25.942 19.37 25.942l155.534-0.086c6.998 0 13.512-3.584 17.266-9.472l156.53-245.816c116.992 8.362 323.1 22.414 451.612 27.278l45.482 1.65-319.8 733.44c-5.832 13.34 3.954 28.274 18.518 28.274h185.544c6.628 0 12.856-3.214 16.696-8.618l528.982-743.88c526.25-0.312 771.414-58.794 771.414-183.978 0-121.856-231.736-178.602-729.316-178.602-13.398 0-26.88 0.028-40.334 0.114l-527.644-745.102c-3.84-5.404-10.040-8.618-16.668-8.648l-189.354-0.426z" />
<glyph unicode="&#xe00e;" glyph-name="plane-alt-filled" d="M1958.57 288.682c0.028-14.592-14.934-24.406-28.302-18.546l-736.426 322.532-1.736-49.75c-4.438-127.972-19.512-332.828-28.558-449.052l246.556-159.914c5.746-3.726 11.378-10.070 11.492-16.896v-152.548c0.2-13.568-12.8-23.466-25.828-19.684l-376.036 109.226-369.096-109.198c-12.942-3.84-25.942 5.888-25.942 19.37l0.086 155.534c0 6.998 3.584 13.512 9.472 17.266l245.816 156.53c-8.362 116.992-22.414 323.1-27.278 451.612l-1.65 45.482-733.44-319.8c-13.34-5.832-28.274 3.954-28.274 18.518v185.544c0 6.628 3.214 12.856 8.618 16.696l743.88 528.982c0.312 526.25 58.794 771.414 183.978 771.414 121.856 0 178.602-231.736 178.602-729.316 0-13.398-0.028-26.88-0.114-40.334l745.102-527.644c5.404-3.84 8.618-10.040 8.648-16.668l0.426-189.354z" />
<glyph unicode="&#xe00f;" glyph-name="plane-alt-outline" d="M1097.728 61.298l2.248 29.098c8.932 114.518 24.576 325.832 29.042 454.684l4.978 142.678 761.288-333.426-0.228 101.546-753.976 533.96 0.142 25.6c0.114 15.786 0.17 31.602 0.17 47.274 0 491.178-59.648 666.168-115.484 666.168-20.168 0-120.832-34.36-120.832-712.534l0.028-28.074-20.536-14.82-731.99-520.534v-98.020l758.358 330.666 4.978-138.040c4.92-130.504 19.484-342.87 27.734-457.814l2.104-29.184-257.848-164.182-0.028-74.638 331.72 98.134 338.090-98.218-1.024 71.766-258.93 167.908zM1958.57 288.682c0.028-14.592-14.934-24.406-28.302-18.546l-736.426 322.532-1.736-49.75c-4.438-127.972-19.512-332.828-28.558-449.052l246.556-159.914c5.746-3.726 11.378-10.070 11.492-16.896v-152.548c0.2-13.568-12.8-23.466-25.828-19.684l-376.036 109.226-369.096-109.198c-12.942-3.84-25.942 5.888-25.942 19.37l0.086 155.534c0 6.998 3.584 13.512 9.472 17.266l245.816 156.53c-8.362 116.992-22.414 323.1-27.278 451.612l-1.65 45.482-733.44-319.8c-13.34-5.832-28.274 3.954-28.274 18.518v185.544c0 6.628 3.214 12.856 8.618 16.696l743.88 528.982c0.312 526.25 58.794 771.414 183.978 771.414 121.856 0 178.602-231.736 178.602-729.316 0-13.398-0.028-26.88-0.114-40.334l745.102-527.644c5.404-3.84 8.618-10.040 8.648-16.668l0.426-189.354z" />
<glyph unicode="&#xe010;" glyph-name="traveler-filled" d="M1796.864 236.344c-131.982 35.128-436.594 139.094-535.21 172.088-11.576 3.868-15.304 18.232-7.054 27.222 101.432 110.364 203.464 299.976 202.922 674.134-0.342 236.374-191.032 434.574-427.406 432.782-242.404-1.848-440.008-192-440.008-433.636 0-380.33 101.12-564.508 208.128-673.024 8.79-8.932 5.206-23.836-6.712-27.734-102.656-33.508-409.912-136.248-540.758-171.606-44.202-11.946-74.838-52.11-74.838-97.906v-145.294h1696.142v144.952c0 45.938-30.806 86.216-75.208 98.020z" />
<glyph unicode="&#xe011;" glyph-name="traveler" d="M225.706 43.178h1596.586v95.176c0 23.382-15.73 43.918-38.258 49.92-116.252 30.948-359.254 112.782-489.814 156.758l-48.384 16.214c-21.476 7.224-37.688 24.604-43.32 46.536-5.632 21.902 0.142 44.914 15.474 61.582 128.114 139.406 190.236 348.9 189.81 640.398-0.284 211.228-168.278 383.090-374.472 383.090h-2.872c-218.966-1.65-390.542-170.268-390.542-383.858 0-297.102 63.402-505.828 193.792-638.094 16.328-16.526 22.812-39.88 17.322-62.436-5.49-22.584-21.96-40.334-44.088-47.53l-66.19-21.76c-136.904-45.142-366.052-120.632-477.014-150.584-22.386-6.088-38.030-26.596-38.030-49.892v-95.516zM1886.294-20.822h-1724.586v159.516c0 52.168 35.1 98.048 85.362 111.644 108.63 29.354 336.924 104.562 473.344 149.476l66.73 21.93 1.024 4.21c-142.82 144.84-212.224 368.242-212.224 683.008 0 249.202 199.48 445.896 454.116 447.858h3.3c241.436 0 438.102-200.534 438.472-447.004 0.456-308.338-67.158-531.996-206.706-683.776l1.080-4.124 47.702-16.014c130.048-43.804 372.168-125.326 486.656-155.818 50.488-13.482 85.788-59.448 85.788-111.786v-159.118z" />
<glyph unicode="&#xe012;" glyph-name="travelers-filled" d="M1175.496 1427.968c55.808 35.128 122.538 55.41 194.93 55.41h2.332c192.598 0 348.074-160.114 348.074-355.044 0-245.988-40.732-406.072-152.12-526.734v-2.332l39.452-13.91c102.116-34.816 282.056-116.054 372.566-139.264 39.452-11.606 67.3-46.422 67.3-88.178v-213.078l-376.32 0.028v53.504c0 97.622-63.688 181.96-158.52 209.834l-1.906 0.568-1.934 0.484c-60.274 15.446-172.118 50.602-333.112 104.648 81.806 145.72 121.884 331.918 121.884 564.11 0 132.466-49.124 253.526-129.82 345.344l7.196 4.608zM1557.902 52.622h-1557.902v145.72c0 47.702 31.8 90.084 76.828 100.694 98.020 26.482 304.696 95.374 429.226 135.112l60.928 21.192v2.646c-129.82 132.466-193.422 333.824-193.422 619.976 0 225.194 180.168 405.362 410.68 405.362h2.646c219.904 0 397.426-182.812 397.426-405.362 0-280.86-60.928-482.218-188.104-619.976v-2.646l45.028-15.9c116.566-39.736 336.498-113.92 439.808-140.43 45.028-13.256 76.828-52.992 76.828-100.694v-145.692h0.028z" />
<glyph unicode="&#xe013;" glyph-name="travelers" d="M76.8 65.422h1550.222v91.022c0 22.756-14.222 42.666-36.978 48.356-113.778 31.288-349.866 110.934-475.022 153.6l-45.512 11.378c-22.756 8.534-36.978 25.6-42.666 45.512-5.688 22.756 0 45.512 14.222 62.578 125.156 136.534 184.888 338.488 184.888 622.934 0 204.8-162.134 372.622-364.088 372.622h-2.844c-213.334-2.844-378.312-164.978-378.312-372.622 0-290.134 62.578-492.088 187.734-620.088 17.066-17.066 22.756-39.822 17.066-62.578s-22.756-39.822-42.666-48.356l-65.422-19.912c-133.688-45.512-355.556-116.622-463.644-147.912-19.912-5.688-36.978-25.6-36.978-48.356v-88.178zM1692.444 0h-1678.222v156.444c0 51.2 34.134 96.712 82.488 108.088 105.244 28.444 327.112 102.4 460.8 145.066l65.422 22.756v2.844c-139.378 142.222-207.644 358.4-207.644 665.6 0 241.778 193.422 435.2 440.888 435.2h2.844c236.088 0 426.666-196.266 426.666-435.2 0-301.512-65.422-517.688-201.956-665.6v-2.844l48.356-17.066c125.156-42.666 361.244-122.312 472.178-150.756 48.356-14.222 82.488-56.888 82.488-108.088l5.688-156.444zM1746.488 113.778h224.712v221.866c0 19.912-14.222 36.978-34.134 42.666-105.244 28.444-324.266 71.112-440.888 110.934l-45.512 14.222c-19.912 5.688-34.134 22.756-39.822 42.666s0 39.822 14.222 56.888c116.622 122.312 170.666 278.756 170.666 537.6 0 184.888-150.756 338.488-335.644 338.488h-2.844c-28.444 0-54.044-2.844-79.644-8.534l-56.888 45.512c42.666 14.222 88.178 22.756 133.688 22.756h2.844c219.022 0 395.378-176.356 395.378-395.378 0-273.066-59.734-440.888-187.734-574.578v-2.844l42.666-14.222c116.622-39.822 335.644-82.488 438.044-108.088 45.512-11.378 76.8-51.2 76.8-99.556v-287.288h-284.444v56.888h8.534z" />
<glyph unicode="&#xe014;" glyph-name="group-filled" d="M681.928 1280.768c-78.364-83.086-125.668-194.674-125.668-318.52 0-212.992 36.552-381.81 111.246-511.26-104.76-34.56-236.828-77.312-306.688-96.768-51.484-13.34-94.152-48.668-119.126-94.436h-241.692v105.416c0 33.82 23.864 65.65 55.694 73.586 71.594 19.882 222.776 69.604 312.264 99.442l43.748 13.91v1.992c-93.468 95.46-139.236 242.66-139.236 451.498 0 165.092 131.272 294.372 300.344 296.362h1.992c34.104 0 66.844-6.116 97.224-17.322l9.898-3.896zM1368.008 1279.402c75.406-82.802 122.226-193.308 123.734-314.68 0-211.854-36.494-380.728-111.018-511.574 102.798-34.93 232.618-77.596 302.678-96.114 54.216-13.226 97.962-49.322 122.596-97.080l242.006-0.228-1.992 107.406c0 33.82-21.874 65.65-55.694 73.586-75.576 19.882-234.696 73.586-320.228 103.424l-31.83 9.956v1.992c93.468 99.442 137.244 248.632 137.244 451.498-1.992 161.11-131.272 294.372-290.39 294.372h-1.992c-35.726-0.426-69.774-6.514-101.262-17.464l-13.852-5.092zM1730.702 35.584h-1413.404v130.958c0 42.012 29.64 81.55 69.176 91.42 88.946 24.718 276.764 86.5 387.954 123.562l54.358 17.294v2.474c-116.138 118.614-172.97 301.454-172.97 560.924 0 205.084 163.1 365.71 373.134 368.184h2.474c197.688 0 358.286-165.546 360.76-365.71 0-252.046-54.358-437.362-170.496-560.924v-2.474l39.538-12.344c106.24-37.064 303.928-103.794 397.824-128.484 42.012-9.87 69.176-49.408 69.176-91.42l2.474-133.462z" />
<glyph unicode="&#xe015;" glyph-name="group" d="M146.318 169.016h-146.318v214.812c0 37.916 25.544 71.31 62.094 81.18 73.046 19.74 226.986 70.456 318.976 100.722l40.818 13.398c-94.92 99.414-141.084 250.766-141.084 462.45 0 159.204 121.77 291.442 283.25 307.598l25.912 2.588-10.296-23.922c-3.356-7.794-6.172-15.872-8.988-23.922l-4.522-12.856-9.188-1.336c-126.436-18.46-218.226-122.824-218.226-248.15 0-295.68 96.968-393.984 128.824-426.296 13.256-13.454 18.518-32.398 14.052-50.688-4.438-18.29-17.806-32.712-35.726-38.57l-44.886-14.734c-92.984-30.664-248.632-81.92-323.812-102.23-11.32-3.072-19.228-13.454-19.228-25.258v-156.872h88.348v-57.912zM2048 170.354h-144.868v57.97h86.898v155.364c0 11.862-7.964 22.244-19.342 25.288-79.332 21.134-244.536 76.772-333.284 106.638l-32.37 10.894c-17.408 5.832-30.578 19.912-35.158 37.688s0.114 36.466 12.544 50.006c85.334 92.842 126.692 232.988 126.408 428.402-0.2 126.834-92.956 233.898-215.808 249.032l-9.528 1.166-4.608 13.512c-2.646 7.736-5.234 15.446-8.362 22.926l-9.586 23.068 24.918-1.878c157.326-11.776 280.746-146.944 280.974-307.74 0.284-207.588-44.686-359.168-137.586-463.16l25.316-8.534c82.176-27.676 253.156-85.276 331.036-106.012 36.75-9.784 62.408-43.208 62.408-81.294v-213.334zM270.222 95.118h1507.556v89.856c0 22.072-14.848 41.472-36.124 47.132-109.994 29.298-339.712 106.638-463.132 148.196l-45.084 15.16c-20.28 6.798-35.556 23.182-40.904 43.89-5.32 20.708 0.142 42.468 14.62 58.198 120.974 131.612 179.626 329.386 179.228 604.672-0.256 199.452-158.89 361.728-353.564 361.728h-2.816c-206.678-1.564-368.668-160.796-368.668-362.468 0-280.52 59.848-477.61 182.984-602.482 15.416-15.616 21.56-37.66 16.356-58.966-5.206-21.334-20.736-38.088-41.614-44.886l-62.52-20.536c-129.28-42.61-345.628-113.92-450.39-142.222-21.162-5.718-35.926-25.060-35.926-47.076v-90.198zM1838.222 34.674h-1628.444v150.642c0 49.266 33.138 92.586 80.612 105.416 102.57 27.734 318.152 98.73 446.948 141.142l63.004 20.708 0.968 3.982c-134.856 136.76-200.392 347.704-200.392 644.892 0 235.292 188.36 421.064 428.8 422.884h3.128c227.954 0 413.668-189.326 414.008-422.088 0.426-291.128-63.432-502.328-195.158-645.632l-3.214-16.64 4.238 12.744 46.052-15.502c122.568-41.244 350.72-118.072 458.496-146.744 47.672-12.714 80.982-56.12 80.982-105.558v-150.244z" />
<glyph unicode="&#xe016;" glyph-name="add-traveler-filled" d="M1753.032-20.822h-1724.586v159.516c0 52.168 35.1 98.048 85.362 111.644 108.63 29.354 336.924 104.562 473.344 149.476l66.73 21.93 1.024 4.21c-142.82 144.84-212.224 368.242-212.224 683.008 0 249.202 199.48 445.896 454.116 447.858h3.3c241.436 0 438.102-200.534 438.472-447.004 0.456-308.338-67.158-531.996-206.706-683.776l1.080-4.124 47.702-16.014c130.048-43.804 372.168-125.326 486.656-155.818 50.488-13.482 85.788-59.448 85.788-111.786v-159.118zM2004.28 776.164h-190.948v190.92h-194.56v-190.92h-190.92v-194.56h190.92v-190.948h194.56v190.948h190.948z" />
<glyph unicode="&#xe017;" glyph-name="add-traveler-outline" d="M1827.926 374.87h-223.032v190.92h-190.92v223.004h190.92v190.92h223.032v-190.92h190.92v-223.004h-190.92v-190.92zM1661.782 431.758h109.256v190.92h190.92v109.226h-190.92v190.948h-109.256v-190.948h-190.92v-109.226h190.92v-190.92zM92.444 43.178h1596.586v95.176c0 23.382-15.73 43.918-38.258 49.92-116.252 30.948-359.254 112.782-489.814 156.758l-48.384 16.214c-21.476 7.224-37.688 24.604-43.32 46.536-5.632 21.902 0.142 44.914 15.474 61.582 128.114 139.406 190.236 348.9 189.81 640.398-0.284 211.228-168.278 383.090-374.472 383.090h-2.872c-218.966-1.65-390.542-170.268-390.542-383.858 0-297.102 63.402-505.828 193.792-638.094 16.328-16.526 22.812-39.88 17.322-62.436-5.49-22.584-21.96-40.334-44.088-47.53l-66.19-21.76c-136.904-45.142-366.052-120.632-477.014-150.584-22.386-6.088-38.030-26.596-38.030-49.892v-95.516zM1753.032-20.822h-1724.586v159.516c0 52.168 35.1 98.048 85.362 111.644 108.63 29.354 336.924 104.562 473.344 149.476l66.73 21.93 1.024 4.21c-142.82 144.84-212.224 368.242-212.224 683.008 0 249.202 199.48 445.896 454.116 447.858h3.3c241.436 0 438.102-200.534 438.472-447.004 0.456-308.338-67.158-531.996-206.706-683.776l1.080-4.124 47.702-16.014c130.048-43.804 372.168-125.326 486.656-155.818 50.488-13.482 85.788-59.448 85.788-111.786v-159.118z" />
<glyph unicode="&#xe018;" glyph-name="user-filled" d="M1024.056 1777.778c-557.738 0-1011.512-453.774-1011.512-1011.512 0-557.768 453.774-1011.512 1011.512-1011.512s1011.512 453.746 1011.512 1011.512c0 557.738-453.774 1011.512-1011.512 1011.512zM443.562 18.204c102.258 32.312 215.922 69.774 297.188 96.568l66.19 21.76c22.102 7.196 38.57 24.946 44.088 47.53 5.49 22.556-0.996 45.91-17.322 62.436-130.39 132.238-193.792 357.86-193.792 654.962 0 213.56 175.786 378.538 394.752 378.538h2.872c206.194 0 369.976-166.57 370.262-377.8 0.426-291.498-61.696-509.412-189.81-648.818-15.332-16.668-21.106-43.918-15.474-65.792 5.632-21.93 21.874-41.416 43.32-48.64l48.412-17.294c79.672-26.824 201.046-68.21 310.102-103.082-160.456-124.728-361.784-199.538-580.296-199.538-218.596-0.028-419.982 74.326-580.494 199.168z" />
<glyph unicode="&#xe019;" glyph-name="user-outline" d="M1024.056 1777.778c-557.738 0-1011.512-453.774-1011.512-1011.512 0-557.768 453.774-1011.512 1011.512-1011.512s1011.512 453.746 1011.512 1011.512c0 557.738-453.774 1011.512-1011.512 1011.512zM443.562 18.204c102.258 32.312 215.922 69.774 297.188 96.568l66.19 21.76c22.102 7.196 38.57 24.946 44.088 47.53 5.49 22.556-0.996 45.91-17.322 62.436-130.39 132.238-193.792 357.86-193.792 654.962 0 213.56 175.786 378.538 394.752 378.538h2.872c206.194 0 369.976-166.57 370.262-377.8 0.426-291.498-61.696-509.412-189.81-648.818-15.332-16.668-21.106-43.918-15.474-65.792 5.632-21.93 21.874-41.416 43.32-48.64l48.412-17.294c79.672-26.824 201.046-68.21 310.102-103.082-160.456-124.728-361.784-199.538-580.296-199.538-218.596-0.028-419.982 74.326-580.494 199.168zM1662.464 66.76c-117.39 36.92-259.272 84.65-348.586 114.744l-47.702 16.014-1.080 4.124c139.52 151.78 207.132 377.656 206.706 685.994-0.398 246.5-197.064 449.252-438.472 449.252h-3.3c-254.634 0-454.116-200.904-454.116-450.076 0-314.738 69.404-539.278 212.224-684.118l-1.024-4.778-66.73-22.216c-91.648-30.18-224.568-74.070-335.018-108.516-189.64 173.368-308.822 422.542-308.822 699.136 0 522.468 425.046 947.484 947.512 947.484s947.542-425.074 947.542-947.542c-0.028-276.736-119.324-526.108-309.134-699.506z" />
<glyph unicode="&#xe01a;" glyph-name="home-filled" d="M1024.028 1288.164l-739.584-752.356v-763.364h512v739.556h455.112v-739.556h512v763.392zM208.612 593.464l-188.53 188.53 952.434 952.434c27.478 27.534 75.52 27.506 102.94 0l427.178-427.178v226.816h266.61v-493.426l258.674-258.646-188.53-188.53-815.388 815.388-815.388-815.388z" />
<glyph unicode="&#xe01b;" glyph-name="home" d="M333.198 755.144v-912.668h399.986v732.416h580.438v-732.388h401.124v917.704l61.582-55.694v-923.592h-524.26v732.388h-457.302v-732.388h-523.15v918.358l61.582 55.864zM1024 1495.95l815.388-815.416 101.462 101.462-233.16 233.16v457.33h-143.446v-313.884l-532.31 532.31c-4.296 4.296-11.576 4.296-15.872 0l-908.914-908.914 101.462-101.462 815.388 815.416zM208.612 593.464l-188.53 188.53 952.434 952.434c27.478 27.534 75.52 27.506 102.94 0l427.178-427.178v226.816h266.61v-493.426l258.674-258.646-188.53-188.53-815.388 815.388-815.388-815.388z" />
<glyph unicode="&#xe01c;" glyph-name="search-filled" d="M1692.444-76.8c22.756-22.756 62.578-22.756 88.178 0l88.178 88.178c22.756 22.756 22.756 62.578 0 88.178l-489.244 489.244c73.956 108.088 116.622 236.088 116.622 375.466-2.844 366.934-301.512 665.6-668.444 665.6s-665.6-298.666-665.6-665.6 298.666-665.6 665.6-665.6c139.378 0 267.378 42.666 372.622 113.778l492.088-489.244zM827.734 492.088c-258.844 0-472.178 210.488-472.178 472.178s213.334 469.334 472.178 469.334 472.178-210.488 472.178-469.334-210.488-472.178-472.178-472.178z" />
<glyph unicode="&#xe01d;" glyph-name="search" d="M1877.418 110.536l-490.922 490.952c67.812 104.278 107.35 228.636 107.35 362.268 0 367.588-297.984 665.6-665.6 665.6s-665.6-298.012-665.6-665.6 298.012-665.6 665.6-665.6c133.66 0 257.992 39.538 362.268 107.35l490.952-490.922c14.25-14.28 33.252-22.158 53.504-22.158 20.196 0 39.196 7.85 53.504 22.158l88.946 88.946c14.308 14.308 22.158 33.308 22.158 53.504 0 20.224-7.85 39.224-22.158 53.504zM226.646 963.754c0 331.72 269.88 601.6 601.6 601.6s601.6-269.88 601.6-601.6c0-331.72-269.88-601.6-601.6-601.6s-601.6 269.88-601.6 601.6zM1832.164 48.782l-88.918-88.918c-4.58-4.494-12.060-4.466-16.526-0.028l-483.612 483.612c38.968 31.118 74.326 66.474 105.444 105.444l483.612-483.612c4.522-4.552 4.522-11.946 0-16.498z" />
<glyph unicode="&#xe01e;" glyph-name="settings-filled" d="M2048 688.356v164.978c0 19.912-14.222 36.978-34.134 39.822l-221.866 31.288c-8.534 0-14.222 8.534-17.066 14.222-19.912 85.334-54.044 164.978-99.556 238.934-5.688 8.534-5.688 17.066 0 22.756l133.688 179.2c11.378 17.066 11.378 39.822-2.844 54.044l-113.778 113.778c-14.222 14.222-36.978 17.066-54.044 2.844l-182.044-128c-5.688-5.688-17.066-5.688-22.756-2.844-73.956 45.512-153.6 76.8-238.934 96.712-8.534 2.844-14.222 8.534-17.066 17.066l-34.134 219.022c-2.844 25.6-19.912 39.822-39.822 39.822h-164.978c-19.912 0-36.978-14.222-39.822-34.134l-31.288-221.866c0-8.534-8.534-14.222-17.066-17.066-85.334-19.912-164.978-51.2-236.088-96.712-8.534-5.688-17.066-5.688-22.756 0l-179.2 133.688c-17.066 11.378-39.822 11.378-54.044-2.844l-113.778-113.778c-14.222-17.066-17.066-39.822-5.688-56.888l133.688-179.2c5.688-5.688 5.688-17.066 0-22.756-48.356-73.956-76.8-153.6-96.712-238.934-2.844-8.534-8.534-14.222-17.066-17.066l-221.866-31.288c-19.912-2.844-34.134-19.912-34.134-39.822v-162.134c0-19.912 14.222-36.978 34.134-39.822l221.866-31.288c8.534 0 14.222-8.534 17.066-14.222 19.912-85.334 54.044-164.978 96.712-238.934 2.844-5.688 2.844-17.066 0-22.756l-133.688-179.2c-11.378-22.756-8.534-45.512 5.688-59.734l113.778-113.778c14.222-14.222 36.978-17.066 54.044-2.844l179.2 133.688c5.688 5.688 17.066 5.688 22.756 0 73.956-45.512 153.6-79.644 236.088-99.556 8.534-2.844 14.222-8.534 14.222-17.066l31.288-221.866c2.844-19.912 19.912-34.134 39.822-34.134h162.134c19.912 0 36.978 14.222 39.822 34.134l31.288 221.866c0 8.534 8.534 14.222 17.066 17.066 88.178 19.912 167.822 54.044 241.778 99.556 5.688 5.688 17.066 5.688 22.756 0l179.2-133.688c17.066-11.378 39.822-11.378 54.044 2.844l113.778 113.778c14.222 14.222 17.066 36.978 2.844 54.044l-133.688 179.2c-5.688 5.688-5.688 17.066 0 22.756 48.356 73.956 79.644 153.6 99.556 238.934 2.844 8.534 8.534 14.222 17.066 14.222l221.866 31.288c28.444 5.688 42.666 22.756 42.666 42.666zM1018.312 352.712c-233.244 0-423.822 190.578-423.822 423.822s190.578 423.822 423.822 423.822 423.822-190.578 423.822-423.822c2.844-233.244-187.734-423.822-423.822-423.822z" />
<glyph unicode="&#xe01f;" glyph-name="settings" d="M1097.956-256h-156.444c-36.978 0-68.266 28.444-73.956 62.578l-31.288 204.8c-73.956 19.912-147.912 51.2-221.866 93.866l-164.978-122.312c-28.444-19.912-71.112-17.066-96.712 8.534l-110.934 110.934c-25.6 25.6-28.444 68.266-8.534 96.712l122.312 164.978c-42.666 71.112-73.956 147.912-91.022 224.712l-204.8 31.288c-31.288 2.844-59.734 34.134-59.734 71.112v156.444c0 36.978 28.444 68.266 62.578 73.956l204.8 31.288c19.912 85.334 51.2 159.288 91.022 224.712l-122.312 164.978c-22.756 28.444-19.912 71.112 8.534 96.712l110.934 110.934c25.6 25.6 68.266 28.444 96.712 8.534l164.978-122.312c65.422 42.666 139.378 71.112 221.866 91.022l31.288 204.8c2.844 31.288 34.134 59.734 71.112 59.734h156.444c36.978 0 68.266-25.6 73.956-62.578l31.288-204.8c82.488-19.912 156.444-48.356 224.712-91.022l164.978 122.312c28.444 19.912 71.112 17.066 96.712-8.534l110.934-110.934c25.6-25.6 28.444-68.266 8.534-96.712l-122.312-164.978c42.666-68.266 73.956-142.222 93.866-224.712l204.8-31.288c36.978-5.688 62.578-36.978 62.578-73.956v-156.444c0-36.978-28.444-68.266-62.578-73.956l-204.8-31.288c-19.912-82.488-51.2-156.444-93.866-224.712l122.312-164.978c22.756-28.444 19.912-71.112-8.534-96.712l-110.934-110.934c-14.222-14.222-31.288-22.756-51.2-22.756v0c-17.066 0-31.288 5.688-42.666 14.222l-164.978 122.312c-71.112-42.666-145.066-73.956-227.556-93.866l-31.288-204.8c-5.688-28.444-36.978-56.888-73.956-56.888zM617.244 176.356c11.378 0 19.912-2.844 28.444-8.534 71.112-45.512 145.066-76.8 219.022-93.866 22.756-5.688 36.978-22.756 42.666-45.512l31.288-213.334c0-2.844 2.844-5.688 5.688-5.688h156.444c2.844 0 5.688 2.844 5.688 5.688l31.288 213.334c2.844 22.756 19.912 39.822 42.666 45.512 79.644 17.066 153.6 48.356 224.712 93.866 19.912 11.378 42.666 11.378 59.734-2.844l173.512-128c2.844 0 2.844-2.844 5.688 0l110.934 110.934c2.844 2.844 2.844 5.688 0 5.688l-128 173.512c-14.222 17.066-14.222 42.666-2.844 62.578 42.666 65.422 73.956 139.378 91.022 221.866 5.688 22.756 22.756 36.978 45.512 42.666l213.334 31.288c2.844 0 5.688 2.844 5.688 5.688v156.444c0 2.844-2.844 5.688-5.688 5.688l-213.334 31.288c-22.756 2.844-39.822 19.912-45.512 42.666-19.912 79.644-48.356 153.6-91.022 221.866-11.378 19.912-11.378 42.666 2.844 62.578l128 173.512c2.844 2.844 0 5.688 0 5.688l-110.934 110.934c-2.844 2.844-5.688 2.844-5.688 0l-173.512-128c-14.222-11.378-42.666-14.222-62.578-2.844-65.422 42.666-139.378 71.112-221.866 88.178-22.756 5.688-39.822 25.6-42.666 48.356l-31.288 210.488c0 2.844-2.844 5.688-5.688 5.688h-156.444c-2.844 0-5.688-2.844-5.688-5.688l-31.288-213.334c-2.844-22.756-19.912-39.822-42.666-45.512-82.488-19.912-153.6-48.356-219.022-88.178-19.912-11.378-42.666-11.378-62.578 2.844l-173.512 128c-2.844 0-2.844 2.844-5.688 0l-110.934-110.934c-2.844-2.844-2.844-5.688 0-5.688l128-173.512c14.222-17.066 14.222-42.666 2.844-62.578-39.822-62.578-71.112-136.534-88.178-219.022-5.688-22.756-22.756-36.978-45.512-42.666l-216.178-34.134c-2.844 0-5.688-2.844-5.688-5.688v-156.444c0-2.844 2.844-5.688 5.688-5.688l213.334-31.288c22.756-2.844 39.822-19.912 45.512-42.666 17.066-76.8 48.356-150.756 91.022-221.866 11.378-19.912 11.378-42.666-2.844-59.734l-128-173.512c-2.844-2.844 0-5.688 0-5.688l110.934-110.934c2.844-2.844 5.688-2.844 5.688 0l173.512 128c11.378 5.688 19.912 8.534 34.134 8.534zM1018.312 329.956c-244.622 0-443.734 199.112-443.734 443.734s199.112 443.734 443.734 443.734 443.734-199.112 443.734-443.734c2.844-116.622-42.666-227.556-125.156-312.888-85.334-82.488-199.112-130.844-318.578-130.844zM1018.312 1152c-207.644 0-375.466-167.822-375.466-375.466-2.844-207.644 167.822-378.312 375.466-378.312 102.4 0 199.112 39.822 270.222 110.934s108.088 164.978 108.088 264.534c-2.844 207.644-173.512 378.312-378.312 378.312z" />
<glyph unicode="&#xe020;" glyph-name="phone-filled" d="M636.644 381.384c-271.928 272.214-820.622 860.928-434.062 1247.516 66.588 66.588 179.314 102.77 244.196 102.77 35.612 0 68.892-18.916 89.144-54.414l303.076-424.534c27.818-39.566 32.74-92.956 12.004-137.216-38.172-81.494-94.806-115.826-132.664-197.006-9.984-21.248-8.22-46.536 4.58-66.048 31.176-47.446 97.422-141.482 196.552-242.12 90.994-92.388 171.69-146.376 217.174-173.482 22.926-13.654 52.394-12.63 74.098 2.588 69.916 40.618 88.746 77.142 158.806 117.93 44.060 25.628 101.006 22.614 142.25-6.798l413.098-273.322c52.054-29.896 60.616-80.072 50.176-133.462-10.496-53.846-29.696-125.042-69.49-182.328-303.19-436.708-996.068 146.802-1268.936 419.926z" />
<glyph unicode="&#xe021;" glyph-name="phone" d="M1608.136-231.224c-380.216 0-858.966 449.678-996.664 587.464-214.044 214.3-865.48 866.36-434.034 1297.806 70.856 70.856 192.568 113.18 269.34 113.18 48.696 0 93.070-26.368 119.068-70.684l302.108-423.14c35.698-50.774 41.472-116.964 15.274-172.942-20.936-44.714-46.422-75.862-71.082-105.984-22.898-27.96-44.488-54.386-61.554-90.966-4.75-10.070-3.896-22.414 2.076-31.488 30.634-46.648 96.342-139.406 192.17-236.686 84.224-85.476 160.682-138.496 210.034-167.908 10.552-6.314 25.486-5.774 35.442 1.166l2.588 1.678c32.086 18.602 52.424 36.296 73.956 55.040 23.096 20.054 46.934 40.818 84.822 62.862 54.584 31.744 129.336 28.104 180.764-8.59l412.074-272.584c39.424-22.584 84.65-71.538 65.45-169.928-15.986-81.948-40.562-146.006-75.178-195.84-79.416-114.46-189.354-172.458-326.656-172.458zM446.776 1696.114c-60.928 0-162.020-35.3-219.050-92.36-256.512-256.512-114.518-648.136 434.062-1197.226 273.664-273.948 665.97-566.642 946.346-566.642 114.232 0 201.984 46.392 268.26 141.852 28.872 41.586 49.72 96.824 63.772 168.904 11.946 61.24-11.35 83.4-32.996 95.8l-415.004 274.46c-31.146 22.244-73.756 23.808-104.76 5.746-32.086-18.688-52.424-36.352-73.956-55.096-22.84-19.854-46.45-40.392-83.656-62.152-32.426-21.96-77.512-23.268-111.36-3.128-52.906 31.544-134.798 88.264-224.312 179.114-95.090 96.54-161.764 187.876-200.932 247.552-19.57 29.724-22.244 68.324-7.054 100.694 20.764 44.544 46.25 75.72 70.912 105.87 22.898 27.96 44.516 54.414 61.724 91.108 15.19 32.456 11.72 72.362-8.904 101.688l-304.84 427.35c-13.226 23.182-34.474 36.466-58.254 36.466z" />
<glyph unicode="&#xe022;" glyph-name="locationalt" d="M976.896 1790.578c-376.604-22.358-686.62-322.248-721.066-697.572-9.528-103.822 1.28-206.25 32.568-305.494 211.030-513.764 674.986-1005.256 694.67-1025.934 10.808-11.32 25.344-17.578 40.96-17.578 15.588 0 30.122 6.258 40.932 17.578 166.23 174.564 524.26 610.588 689.976 1012.024 26.936 79.758 40.562 162.816 40.562 246.87 0 441.032-371.57 796.842-818.602 770.104zM1024 635.336c-215.808 0-391.368 175.56-391.368 391.368s175.588 391.368 391.368 391.368 391.368-175.56 391.368-391.368-175.56-391.368-391.368-391.368z" />
<glyph unicode="&#xe023;" glyph-name="location" d="M1024 1728.882c-14.364 0-28.928-0.426-43.35-1.28-345.742-20.536-630.328-295.822-661.96-640.342-8.732-95.090 1.080-188.786 29.184-278.556 163.272-396.572 510.748-823.41 676.124-998.542 165.29 174.734 511.488 597.902 671.886 985.828 24.064 71.594 36.494 147.57 36.494 224.512 0 390.6-317.782 708.38-708.38 708.38zM1024.028-256c-15.616 0-30.152 6.258-40.96 17.578-19.656 20.708-483.64 512.2-694.642 1025.962-31.288 99.242-42.098 201.672-32.568 305.494 34.446 375.296 344.462 675.186 721.066 697.572 447.004 26.738 818.602-329.102 818.602-770.104 0-84.054-13.654-167.112-40.562-246.87-165.718-401.436-523.776-837.462-690.006-1012.054-10.808-11.32-25.344-17.578-40.932-17.578zM1024 1418.070c215.808 0 391.368-175.56 391.368-391.368s-175.56-391.368-391.368-391.368-391.368 175.56-391.368 391.368 175.588 391.368 391.368 391.368zM1024 1481.188c-250.994 0-454.486-203.492-454.486-454.486s203.492-454.486 454.486-454.486 454.486 203.492 454.486 454.486-203.464 454.486-454.486 454.486v0z" />
<glyph unicode="&#xe027;" glyph-name="time" d="M1024-86.3c471.068 0 854.3 383.232 854.3 854.3s-383.232 854.3-854.3 854.3c-471.068 0-854.3-383.232-854.3-854.3s383.232-854.3 854.3-854.3zM1024-256c-564.65 0-1024 459.378-1024 1024 0 564.65 459.35 1024 1024 1024 564.622 0 1024-459.35 1024-1024 0-564.622-459.378-1024-1024-1024zM1532.758 510.264c-5.404 0-10.724 1.024-15.816 3.016l-539.876 217.372c-13.426 4.836-38.4 13.796-38.4 38.628v539.164c0 23.524 19.144 42.666 42.666 42.666s42.666-19.144 42.666-42.666v-510.18l510.236-205.654c22.386-9.046 40.704-31.574 30.948-55.638-3.84-19.57-19.314-26.71-32.426-26.71z" />
<glyph unicode="&#xe028;" glyph-name="sun-filled" d="M926.89 1443.84v327.68c0 11.32 9.16 20.48 20.48 20.48h153.6c11.32 0 20.48-9.16 20.48-20.48v-327.68c0-11.32-9.16-20.48-20.48-20.48h-153.6c-11.292 0-20.48 9.16-20.48 20.48zM926.89-235.15v327.68c0 11.32 9.16 20.48 20.48 20.48h153.6c11.32 0 20.48-9.16 20.48-20.48v-327.68c0-11.32-9.16-20.48-20.48-20.48h-153.6c-11.292 0-20.48 9.16-20.48 20.48zM1699.84 865.45h327.68c11.32 0 20.48-9.16 20.48-20.48v-153.6c0-11.32-9.16-20.48-20.48-20.48h-327.68c-11.32 0-20.48 9.16-20.48 20.48v153.6c0 11.32 9.16 20.48 20.48 20.48zM20.85 865.45h327.68c11.32 0 20.48-9.16 20.48-20.48v-153.6c0-11.32-9.16-20.48-20.48-20.48h-327.68c-11.32 0-20.48 9.16-20.48 20.48v153.6c0 11.32 9.16 20.48 20.48 20.48zM1433.144 1314.73l231.708 231.708c7.992 7.992 20.964 7.992 28.956 0l108.6-108.6c7.992-7.992 7.992-20.964 0-28.956l-231.708-231.708c-7.992-7.992-20.964-7.992-28.956 0l-108.6 108.6c-7.992 7.992-7.992 20.964 0 28.956zM245.93 127.488l231.708 231.708c7.992 7.992 20.964 7.992 28.956 0l108.6-108.6c7.992-7.992 7.992-20.964 0-28.956l-231.708-231.708c-7.992-7.992-20.964-7.992-28.956 0l-108.6 108.6c-8.022 7.992-8.022 20.964 0 28.956zM1570.73 359.196l231.708-231.708c7.992-7.992 7.992-20.964 0-28.956l-108.6-108.6c-7.992-7.992-20.964-7.992-28.956 0l-231.708 231.708c-7.992 7.992-7.992 20.964 0 28.956l108.6 108.6c7.992 7.992 20.964 7.992 28.956 0zM383.488 1546.44l231.708-231.708c7.992-7.992 7.992-20.964 0-28.956l-108.6-108.6c-7.992-7.992-20.964-7.992-28.956 0l-231.708 231.68c-7.992 7.992-7.992 20.964 0 28.956l108.6 108.6c7.992 8.022 20.964 8.022 28.956 0.028zM1484.97 767.346c0-254.492-206.308-460.8-460.8-460.8s-460.8 206.308-460.8 460.8c0 254.492 206.308 460.8 460.8 460.8s460.8-206.308 460.8-460.8z" />
<glyph unicode="&#xe029;" glyph-name="sun" d="M969.558 1444.694h109.198v283.306h-109.198v-283.306zM1100.97 1380.694h-153.6c-23.068 0-41.814 18.774-41.814 41.814v327.68c0 23.068 18.744 41.814 41.814 41.814h153.6c23.068 0 41.814-18.744 41.814-41.814v-327.68c0-23.040-18.744-41.814-41.814-41.814zM969.558-192h109.198v283.306h-109.198v-283.306zM1100.97-256h-153.6c-23.068 0-41.814 18.774-41.814 41.814v327.68c0 23.068 18.744 41.814 41.814 41.814h153.6c23.068 0 41.814-18.744 41.814-41.814v-327.68c0-23.040-18.744-41.814-41.814-41.814zM1700.864 822.614v-109.198h283.306v109.198h-283.306zM1636.864 691.2v153.6c0 23.068 18.774 41.814 41.814 41.814h327.68c23.068 0 41.814-18.744 41.814-41.814v-153.6c0-23.068-18.744-41.814-41.814-41.814h-327.68c-23.040 0-41.814 18.774-41.814 41.814zM64.17 822.614v-109.198h283.306v109.198h-283.306zM0.17 691.2v153.6c0 23.068 18.774 41.814 41.814 41.814h327.68c23.068 0 41.814-18.744 41.814-41.814v-153.6c0-23.068-18.744-41.814-41.814-41.814h-327.68c-23.040 0-41.814 18.774-41.814 41.814zM1464.064 1285.12l77.226-77.226 200.334 200.334-77.226 77.226-200.334-200.334zM1511.708 1146.936l-108.6 108.6c-16.298 16.298-16.298 42.838 0 59.136l231.708 231.708c16.298 16.298 42.808 16.298 59.136 0l108.6-108.6c16.298-16.298 16.298-42.808 0-59.136l-231.708-231.708c-16.298-16.298-42.808-16.298-59.136 0zM306.744 127.8l77.226-77.226 200.334 200.334-77.226 77.226-200.334-200.334zM354.39-10.382l-108.6 108.6c-16.298 16.298-16.298 42.838 0 59.136l231.708 231.708c16.298 16.298 42.808 16.298 59.136 0l108.6-108.6c16.298-16.298 16.298-42.808 0-59.136l-231.708-231.708c-16.298-16.298-42.808-16.298-59.136 0zM1541.29 328.106l-77.226-77.226 200.334-200.334 77.226 77.226-200.334 200.334zM1403.108 280.462l108.6 108.6c16.298 16.298 42.838 16.298 59.136 0l231.708-231.708c16.298-16.298 16.298-42.808 0-59.136l-108.6-108.6c-16.298-16.298-42.808-16.298-59.136 0l-231.708 231.708c-16.298 16.298-16.298 42.838 0 59.136zM383.972 1485.426l-77.226-77.226 200.334-200.334 77.226 77.226-200.334 200.334zM245.788 1437.782l108.6 108.6c16.298 16.298 42.838 16.298 59.136 0l231.708-231.708c16.298-16.298 16.298-42.808 0-59.136l-108.6-108.6c-16.298-16.298-42.808-16.298-59.136 0l-231.708 231.708c-16.298 16.298-16.298 42.838 0 59.136zM1024.17 1163.804c218.794 0 396.8-178.006 396.8-396.8s-178.006-396.8-396.8-396.8-396.8 178.006-396.8 396.8 178.006 396.8 396.8 396.8zM1024.17 1227.804c-254.492 0-460.8-206.308-460.8-460.8s206.308-460.8 460.8-460.8 460.8 206.308 460.8 460.8-206.308 460.8-460.8 460.8v0z" />
<glyph unicode="&#xe02a;" glyph-name="overnight-filled" d="M2012.132 556.8c-12.374 15.758-38.542 17.096-52.024 1.252-147.286-172.572-361.7-271.56-588.288-271.56-20.196 0-40.874 0.796-61.384 2.36-368.44 28.444-672.824 326.968-708.068 694.442-27.392 285.554 103.396 561.436 341.334 719.986 12.43 8.278 17.664 22.812 13.368 37.064-4.75 15.758-18.888 25.884-36.552 23.722-530.688-67.3-912.84-539.222-870.002-1074.46 38.912-486.286 435.314-879.758 922.026-915.228 24.804-1.82 50.034-2.73 74.952-2.73 459.976 0 859.022 311.296 970.41 757.020 2.504 10.154 0.456 20.138-5.774 28.132z" />
<glyph unicode="&#xe02b;" glyph-name="overnight" d="M2012.132 556.8c-12.374 15.758-38.542 17.096-52.024 1.252-147.286-172.572-361.7-271.56-588.288-271.56-20.196 0-40.874 0.796-61.384 2.36-368.44 28.444-672.824 326.968-708.068 694.442-27.392 285.554 103.396 561.436 341.334 719.986 12.43 8.278 17.664 22.812 13.368 37.064-4.75 15.758-18.888 25.884-36.552 23.722-530.688-67.3-912.84-539.222-870.002-1074.46 38.912-486.286 435.314-879.758 922.026-915.228 24.804-1.82 50.034-2.73 74.952-2.73 459.976 0 859.022 311.296 970.41 757.020 2.504 10.154 0.456 20.138-5.774 28.132zM1047.496-166.656c-23.324 0-47.048 0.854-70.456 2.56-456.676 33.308-828.558 402.404-865.052 858.652-37.32 466.034 260.808 876.402 703.488 987.136-195.868-175.872-299.946-438.898-274.488-704.312 38.030-396.856 366.792-719.274 764.7-749.994 21.902-1.678 44.146-2.532 66.134-2.532 203.064 0 399.56 74.922 551.082 207.9-138.268-356.808-486.968-599.41-875.406-599.41z" />
<glyph unicode="&#xe02c;" glyph-name="bell-filled" d="M1027.612-57.116c-87.352 0-174.706 1.764-259.328 4.608 35.926-109.142 138.666-188.188 259.67-188.188s223.744 79.076 259.67 188.216c-84.792-2.872-172.43-4.636-260.010-4.636zM1027.612 28.216c-335.132 0-672.312 25.912-843.492 41.358-28.074 2.532-51.512 20.536-61.128 47.018-9.614 26.312-3.3 55.012 16.412 74.922 53.788 54.216 124.046 134.030 153.23 206.392 53.96 133.688 89.742 617.416 90.112 622.28 10.326 278.5 195.356 515.812 462.052 594.29-5.348 23.040-6.486 54.072 15.018 89.912 26.794 44.63 77.312 72.362 131.812 72.362h72.932c54.442 0 104.904-27.704 131.64-72.334 21.56-35.896 20.366-67.016 14.99-90.112 267.804-78.848 453.576-316.188 463.9-594.802 0.17-4.494 16.896-449.622 87.182-621.54 28.246-69.12 78.678-140.6 145.834-206.762 20.054-19.74 26.624-48.47 17.124-74.98-9.586-26.652-33.052-44.8-61.24-47.332-169.784-15.218-504.12-40.676-836.38-40.676z" />
<glyph unicode="&#xe02d;" glyph-name="bell" d="M1027.954-225.45c-150.784 0-273.464 122.68-273.464 273.464h60.758c0-117.304 95.402-212.708 212.708-212.708s212.68 95.402 212.68 212.708h60.758c0.028-150.784-122.652-273.464-273.436-273.464zM991.574 1700.664c-33.28 0-63.83-16.44-79.702-42.866-10.808-17.976-12.316-32.456-5.518-53.362l15.304-47.16-47.844-13.056c-247.894-67.442-420.864-285.298-430.392-542.066-1.508-20.992-36.694-499.228-94.464-642.276-26.482-65.65-82.488-141.852-166.456-226.474-3.158-3.158-3.982-7.082-2.474-11.292 1.592-4.352 4.892-6.884 9.528-7.31 170.126-15.36 505.202-41.13 838.030-41.13 329.898 0 662.186 25.316 830.92 40.448 4.608 0.398 7.88 2.958 9.444 7.338 1.508 4.182 0.626 8.050-2.56 11.178-73.984 72.846-127.63 149.248-159.432 227.016-74.552 182.386-90.994 623.672-91.676 642.36-9.33 252.36-187.080 475.278-432.242 542.066l-47.872 13.056 15.388 47.19c6.712 20.68 5.206 35.698-5.518 53.504-15.816 26.396-46.28 42.808-79.502 42.808h-72.96zM1027.612 12.914c-335.132 0-672.312 25.912-843.492 41.358-28.074 2.532-51.512 20.536-61.128 47.018-9.614 26.312-3.3 55.012 16.412 74.922 53.788 54.216 124.046 134.030 153.23 206.392 53.96 133.688 89.742 617.416 90.112 622.28 10.326 278.5 195.356 515.812 462.052 594.29-5.348 23.040-6.486 54.072 15.018 89.912 26.794 44.63 77.312 72.362 131.812 72.362h72.932c54.442 0 104.904-27.704 131.64-72.334 21.56-35.896 20.366-67.016 14.99-90.112 267.804-78.848 453.576-316.188 463.9-594.802 0.17-4.494 16.896-449.622 87.182-621.54 28.246-69.12 78.678-140.6 145.834-206.762 20.054-19.74 26.624-48.47 17.124-74.98-9.586-26.652-33.052-44.8-61.24-47.332-169.784-15.19-504.12-40.676-836.38-40.676z" />
<glyph unicode="&#xe02e;" glyph-name="mail-filled" d="M987.022 645.688v0c11.378-11.378 22.756-17.066 36.978-17.066 11.378 0 22.756 5.688 34.134 14.222v0 0l967.112 847.644c-22.756 22.756-56.888 25.6-82.488 25.6h-1834.666c-39.822 0-71.112-11.378-88.178-34.134l967.112-836.266zM0 1314.134v-1152l605.866 617.244zM2048 162.134v1154.844l-608.712-537.6zM1157.688 534.756c-36.978-36.978-85.334-56.888-139.378-56.888-51.2 0-102.4 19.912-139.378 56.888l-164.978 142.222-657.066-659.912c14.222-2.844 28.444-2.844 51.2-2.844h1834.666c19.912 0 36.978 0 48.356 2.844l-665.6 665.6-167.822-147.912z" />
<glyph unicode="&#xe02f;" glyph-name="mail" d="M1888.712 1547.378h-1729.422c-88.178 0-159.288-71.112-159.288-159.288v-1240.178c0-88.178 71.112-159.288 159.288-159.288h1729.422c42.666 0 85.334 17.066 113.778 48.356s45.512 71.112 42.666 113.778v1237.334c2.844 88.178-68.266 159.288-156.444 159.288v0zM122.312 1405.156c5.688 14.222 19.912 28.444 39.822 28.444h1726.578c17.066 0 34.134-11.378 39.822-25.6l-864.712-753.778c-8.534-8.534-22.756-14.222-36.978-14.222s-28.444 5.688-39.822 14.222l-864.712 750.934zM1390.934 779.378l537.6 466.488v-1004.088l-537.6 537.6zM122.312 238.934v1004.088l540.444-463.644-540.444-540.444zM1143.466 563.2l156.444 136.534 591.644-591.644c0 0 0 0-2.844 0h-1726.578c0 0-2.844 0-2.844 0l591.644 591.644 153.6-136.534c31.288-31.288 73.956-48.356 119.466-48.356s88.178 17.066 119.466 48.356v0z" />
<glyph unicode="&#xe030;" glyph-name="comment-filled" d="M429.624-226.902c-25.742 0-46.678 20.878-46.678 46.506v309.704h-230.314c-73.102 0-132.58 59.478-132.58 132.58v1254.656c0 73.102 59.478 132.58 132.58 132.58h1742.706c73.102 0 132.58-59.478 132.58-132.58v-1254.656c0-73.102-59.478-132.58-132.58-132.58h-1088.938l-344.234-342.614c-8.79-8.76-20.338-13.596-32.54-13.596z" />
<glyph unicode="&#xe031;" glyph-name="comment" d="M152.632 1587.228c-38.968 0-70.684-31.716-70.684-70.684v-1254.656c0-38.968 31.716-70.684 70.684-70.684h292.182v-334.45l336.014 334.45h1114.482c38.968 0 70.684 31.716 70.684 70.684v1254.656c0 38.998-31.716 70.684-70.684 70.684h-1742.678zM429.624-226.902c-25.742 0-46.678 20.878-46.678 46.506v309.704h-230.314c-73.102 0-132.58 59.478-132.58 132.58v1254.656c0 73.102 59.478 132.58 132.58 132.58h1742.706c73.102 0 132.58-59.478 132.58-132.58v-1254.656c0-73.102-59.478-132.58-132.58-132.58h-1088.938l-344.234-342.614c-8.79-8.76-20.338-13.596-32.54-13.596z" />
<glyph unicode="&#xe032;" glyph-name="noimage-filled" d="M2019.556 1473.764c0 65.792-53.334 119.126-119.126 119.126h-1752.86c-65.792 0-119.126-53.334-119.126-119.126v-1383.082c0-65.792 53.334-119.126 119.126-119.126h1752.86c65.792 0 119.126 53.334 119.126 119.126v1383.082zM1548.914 1277.838c82.232 0 148.906-66.674 148.906-148.906s-66.674-148.906-148.906-148.906c-82.232 0-148.906 66.674-148.906 148.906s66.646 148.906 148.906 148.906zM1962.666 91.336c0-31.516-33.508-62.89-65.024-62.89h-1747.144c-31.516 0-65.166 31.374-65.166 62.89v83.228l593.864 765.81c7.538 9.784 24.064 10.382 32.398 1.28l496.498-541.156c7.452-8.136 20.594-8.648 28.672-1.138l293.518 272.498c8.476 7.88 25.942 6.856 33.166-2.19l399.218-496.44v-81.892z" />
<glyph unicode="&#xe033;" glyph-name="noimage" d="M1564.502 1267.456c81.18 0 147-65.82 147-147s-65.82-147-147-147c-81.18 0-147 65.82-147 147s65.82 147 147 147zM1564.502 1328.726c-114.83 0-208.242-93.412-208.242-208.242s93.412-208.242 208.242-208.242 208.242 93.412 208.242 208.242-93.44 208.242-208.242 208.242v0zM90.396 1437.752c0 45.084 36.664 81.75 81.75 81.75h1698.076c45.084 0 81.778-36.664 81.778-81.75l0.91-1141.162-358.002 447.004c-7.88 9.842-19.684 15.702-36.552 17.522-14.222 0-27.506-6.344-36.466-17.464l-292.040-277.362-504.178 544.91c-17.864 22.3-55.126 22.328-73.046 0.086l-563.4-700.558 1.166 1127.026zM90.396 214.442l583.196 725.162c7.964 9.898 23.012 9.87 30.948-0.028l511.602-557.112c7.594-7.85 20.024-8.362 28.246-1.138l298.44 290.674c7.964 9.87 23.012 9.87 30.948-0.028l378.226-472.234v-101.518c0-45.142-36.608-81.75-81.75-81.75h-1698.104c-45.142 0-81.75 36.608-81.75 81.75v116.224zM2013.24 98.248v1339.506c0 78.848-64.142 142.99-143.018 142.99h-1698.076c-78.848 0-142.99-64.142-142.99-142.99v-1339.506c0-78.848 64.142-142.99 142.99-142.99h1698.076c78.876 0 143.018 64.142 143.018 142.99z" />
<glyph unicode="&#xe034;" glyph-name="gallery-filled" d="M1358.678 778.41l344.292-432.868v-64.028c0-23.21-18.802-42.012-42.012-42.012h-1554.944c-23.21 0-42.012 18.802-42.012 42.012v72.050l513.48 667.62c7.766 10.098 22.784 10.724 31.374 1.308l435.882-478.634c7.68-8.448 20.792-8.96 29.128-1.166l254.806 237.966c8.76 8.136 22.584 7.112 30.008-2.248zM1660.956 1614.080h-1554.944c-58.538 0-106.012-47.446-106.012-106.012v-1226.582c0-58.538 47.474-106.012 106.012-106.012h1554.944c58.538 0 106.012 47.474 106.012 106.012v1226.582c0 58.568-47.474 106.012-106.012 106.012v0zM1347.612 1321.642c72.988 0 132.152-59.164 132.152-132.152s-59.164-132.152-132.152-132.152-132.152 59.164-132.152 132.152c0 72.988 59.164 132.152 132.152 132.152zM281.032 100.352v-69.774c0-58.538 47.474-106.012 106.012-106.012h1554.944c58.538 0 106.012 47.474 106.012 106.012v1226.582c0 58.538-47.474 106.012-106.012 106.012v0h-96.086v-1100.6l138.126-167.964v-64.028c0-23.21-18.802-42.012-42.012-42.012h-1554.972c-23.21 0-42.012 18.802-42.012 42.012v69.774h-64z" />
<glyph unicode="&#xe035;" glyph-name="gallery-outline" d="M1973.248 61.696c0-45.142-36.608-81.75-81.75-81.75h-1478.998c-45.142 0-81.75 36.608-81.75 81.75v44.004h-61.27v-44.032c0-78.848 64.142-142.99 142.99-142.99h1478.998c78.876 0 143.018 64.142 143.018 142.99v1174.358c0 78.848-64.142 142.99-143.018 142.99h-38.712v-61.24h38.712c45.084 0 81.778-36.664 81.778-81.75l0.91-1061.29-0.91-113.038zM1359.36 1323.406c73.728 0 133.518-59.79 133.518-133.518s-59.79-133.518-133.518-133.518-133.518 59.79-133.518 133.518 59.79 133.518 133.518 133.518zM1359.36 1379.044c-104.306 0-189.156-84.85-189.156-189.156s84.85-189.156 189.156-189.156c104.306 0 189.156 84.85 189.156 189.156s-84.85 189.156-189.156 189.156v0zM74.752 1492.024c0 45.084 36.664 81.75 81.75 81.75h1478.998c45.084 0 81.778-36.664 81.778-81.75l0.91-1061.29-324.266 419.044c-7.88 9.842-19.684 15.702-36.552 17.522-14.222 0-27.506-6.344-36.466-17.464l-243.058-232.392-432.498 475.164c-17.864 22.3-55.126 22.328-73.046 0.086l-498.716-647.822 1.166 1047.154zM74.752 348.586l518.514 672.426c7.964 9.898 23.012 9.87 30.948-0.028l439.894-487.338c7.594-7.85 20.024-8.362 28.246-1.138l249.486 245.704c7.964 9.87 23.012 9.87 30.948-0.028l344.49-444.274v-16.184c0-45.142-36.608-81.75-81.75-81.75h-1479.026c-45.142 0-81.75 36.608-81.75 81.75v30.862zM1778.518 317.696v1174.328c0 78.848-64.142 142.99-143.018 142.99h-1478.998c-78.848 0-142.99-64.142-142.99-142.99v-1174.328c0-78.848 64.142-142.99 142.99-142.99h1478.998c78.876 0.028 143.018 64.17 143.018 142.99z" />
<glyph unicode="&#xe036;" glyph-name="filter" d="M452.266 1763.556h-125.156c-19.912 0-34.134-17.066-34.134-34.134v-750.934l-14.222-8.534c-71.112-42.666-116.622-116.622-116.622-199.112 0-79.644 45.512-156.444 116.622-196.266l14.222-8.534v-762.312c0-19.912 17.066-34.134 34.134-34.134h125.156c19.912 0 34.134 17.066 34.134 34.134v759.466l14.222 8.534c71.112 39.822 116.622 116.622 116.622 199.112s-45.512 159.288-116.622 199.112l-14.222 8.534v750.934c0 19.912-17.066 34.134-34.134 34.134zM389.688 915.912c76.8 0 142.222-62.578 142.222-142.222s-62.578-142.222-142.222-142.222-142.222 62.578-142.222 142.222 65.422 142.222 142.222 142.222zM1086.578 1763.556h-125.156c-19.912 0-34.134-17.066-34.134-34.134v-1260.088l-14.222-8.534c-71.112-42.666-116.622-116.622-116.622-199.112 0-79.644 45.512-156.444 116.622-196.266l14.222-8.534v-256c0-19.912 17.066-34.134 34.134-34.134h125.156c19.912 0 34.134 17.066 34.134 34.134v250.312l14.222 8.534c71.112 39.822 116.622 116.622 116.622 199.112s-45.512 159.288-116.622 199.112l-14.222 8.534v1262.934c0 19.912-17.066 34.134-34.134 34.134zM1026.844 406.756c76.8 0 142.222-62.578 142.222-142.222s-62.578-142.222-142.222-142.222-142.222 62.578-142.222 142.222 62.578 142.222 142.222 142.222zM1723.734 1763.556h-125.156c-17.066 0-34.134-14.222-34.134-31.288v-244.622l-14.222-8.534c-71.112-42.666-116.622-116.622-116.622-199.112 0-79.644 45.512-156.444 116.622-196.266l14.222-8.534v-1274.312c0-19.912 17.066-34.134 34.134-34.134h125.156c19.912 0 34.134 17.066 34.134 34.134v1268.622l14.222 8.534c71.112 39.822 116.622 116.622 116.622 199.112s-45.512 159.288-116.622 199.112l-14.222 8.534v244.622c0 19.912-17.066 34.134-34.134 34.134zM1661.156 1425.066c76.8 0 142.222-62.578 142.222-142.222s-62.578-142.222-142.222-142.222-142.222 62.578-142.222 142.222 65.422 142.222 142.222 142.222z" />
<glyph unicode="&#xe037;" glyph-name="filter-outline" d="M1659.876 1472.2c105.416 0 191.176-85.76 191.176-191.176s-85.76-191.176-191.176-191.176-191.176 85.76-191.176 191.176 85.76 191.176 191.176 191.176zM1719.95 1529.032c-18.972 4.494-39.736 6.884-60.074 6.884v0c-21.020 0-40.534-2.532-60.074-7.338v179.228c0 11.32 9.16 20.48 20.48 20.48h79.19c11.32 0 20.48-9.16 20.48-20.48v-178.774zM1699.47-192.284h-79.19c-11.32 0-20.48 9.16-20.48 20.48v1205.304c19.542-4.808 39.054-7.338 60.074-7.338 20.508 0 40.988 2.418 60.074 6.998v-1204.964c0-11.292-9.16-20.48-20.48-20.48zM1536.086 1503.544c-77.852-43.634-131.072-126.92-131.072-222.52 0-95.544 53.304-178.802 131.072-222.436v-1294.108c0-11.32 9.16-20.48 20.48-20.48h206.648c11.32 0 20.48 9.16 20.48 20.48v1293.198c78.678 43.378 131.072 127.146 131.072 223.346 0 96.086-52.566 179.74-131.072 223.176v267.32c0 11.32-9.16 20.48-20.48 20.48h-206.648c-11.32 0-20.48-9.16-20.48-20.48v-267.976zM388.124 962.418c105.416 0 191.176-85.76 191.176-191.176s-85.76-191.176-191.176-191.176-191.176 85.76-191.176 191.176 85.76 191.176 191.176 191.176zM448.2 1019.25c-18.972 4.494-39.736 6.884-60.074 6.884v0c-21.020 0-40.534-2.532-60.074-7.338v689.010c0 11.32 9.16 20.48 20.48 20.48h79.19c11.32 0 20.48-9.16 20.48-20.48v-688.554zM427.72-192.284h-79.19c-11.32 0-20.48 9.16-20.48 20.48v695.524c19.542-4.808 39.054-7.338 60.074-7.338 20.508 0 40.988 2.418 60.074 6.998v-695.182c0-11.292-9.16-20.48-20.48-20.48zM264.306 993.792c-77.852-43.634-131.072-126.92-131.072-222.52 0-95.544 53.304-178.802 131.072-222.436v-784.356c0-11.32 9.16-20.48 20.48-20.48h206.648c11.32 0 20.48 9.16 20.48 20.48v783.446c78.678 43.378 131.072 127.146 131.072 223.346 0 96.086-52.566 179.74-131.072 223.176v777.074c0 11.32-9.16 20.48-20.48 20.48h-206.648c-11.32 0-20.48-9.16-20.48-20.48v-777.728zM1025.82 452.664c105.416 0 191.176-85.76 191.176-191.176s-85.76-191.176-191.176-191.176c-105.416 0-191.176 85.76-191.176 191.176s85.76 191.176 191.176 191.176zM1085.896 509.496c-18.972 4.494-39.736 6.884-60.074 6.884v0c-21.020 0-40.534-2.532-60.074-7.338v1198.762c0 11.32 9.16 20.48 20.48 20.48h79.19c11.32 0 20.48-9.16 20.48-20.48v-1198.308zM1065.416-192.284h-79.19c-11.32 0-20.48 9.16-20.48 20.48v185.77c19.542-4.808 39.054-7.338 60.074-7.338 20.508 0 40.988 2.418 60.074 6.998v-185.4c0-11.32-9.16-20.508-20.48-20.508zM902.002 484.010c-77.852-43.634-131.072-126.92-131.072-222.52 0-95.544 53.304-178.802 131.072-222.436v-274.574c0-11.32 9.16-20.48 20.48-20.48h206.648c11.32 0 20.48 9.16 20.48 20.48v273.664c78.678 43.378 131.072 127.146 131.072 223.346 0 96.086-52.566 179.74-131.072 223.176v1286.856c0 11.32-9.16 20.48-20.48 20.48h-206.648c-11.32 0-20.48-9.16-20.48-20.48v-1287.51z" />
<glyph unicode="&#xe038;" glyph-name="cart" d="M500.85 132.978c-8.534 0-17.066 5.688-19.912 17.066l-244.622 1344.028h-215.864c-11.378 0-19.912 8.534-19.912 19.912v184.888c0 11.378 8.534 19.912 19.912 19.912h392.22c8.534 0 17.066-5.688 19.912-17.066l34.134-193.422 17.066-102.4h1470.89c28.444 0 54.044-11.378 71.112-34.134s25.6-48.356 19.912-76.8l-142.222-653.568c-8.534-45.512-45.512-76.8-93.866-76.8l-1155.158-85.334 17.066-121.572h1166.536c11.378 0 19.912-8.534 19.912-19.912v-187.734c0-11.378-8.534-19.912-19.912-19.912h-11.378c31.288-34.134 48.356-76.8 48.356-125.156 0-102.4-85.334-187.734-187.734-187.734s-187.734 85.334-187.734 187.734c0 48.356 17.066 93.866 48.356 125.156h-765.468c31.288-34.134 48.356-76.8 48.356-125.156 0-102.4-85.334-187.734-187.734-187.734s-187.734 85.334-187.734 187.734c0 51.2 17.066 93.866 45.512 128v0 0z" />
<glyph unicode="&#xe03a;" glyph-name="credit-card-filled" d="M1865.956 1433.6c31.288 0 68.266-25.6 68.266-59.734v-238.934c0-11.378-8.534-19.912-19.912-19.912h-1783.466c-11.378 0-19.912 8.534-19.912 19.912v230.4c0 36.978 31.288 68.266 68.266 68.266h1698.134zM1917.156 887.466c11.378 0 19.912-8.534 19.912-19.912v-696.888c0-31.288-25.6-68.266-59.734-68.266 5.688-5.688-1695.288 2.844-1695.288 2.844-31.288 0-68.266 34.134-68.266 68.266v694.044c0 11.378 8.534 19.912 19.912 19.912h1783.466z" />
<glyph unicode="&#xe03b;" glyph-name="credit-card" d="M1891.556 5.688h-1740.8c-88.178 0-150.756 59.734-150.756 145.066v1223.112c0 85.334 68.266 153.6 153.6 153.6h1740.8c88.178 0 153.6-65.422 153.6-153.6v-1223.112c0-79.644-68.266-145.066-156.444-145.066zM105.244 787.912v-622.934c0-25.6 28.444-51.2 51.2-51.2 449.422-2.844 1595.734-8.534 1735.112-2.844v0h17.066c22.756 0 39.822 28.444 39.822 51.2v625.778h-1843.2zM102.4 1106.488h1840.356v278.756c0 22.756-28.444 39.822-51.2 39.822h-1737.956c-22.756 0-51.2-22.756-51.2-39.822v-278.756z" />
<glyph unicode="&#xe03c;" glyph-name="ticket" d="M1925.688 1373.866h-1803.378c-65.422 0-122.312-54.044-122.312-122.312v-975.644c0-68.266 51.2-113.778 119.466-113.778h1800.534c68.266 0 125.156 48.356 125.156 113.778v975.644c2.844 68.266-51.2 122.312-119.466 122.312v0zM1223.112 1123.556h770.844v-839.112c0-31.288-25.6-68.266-59.734-68.266h-711.112v907.378zM1166.222 219.022h-1043.912c-31.288 0-68.266 34.134-68.266 68.266v836.266h1112.178v-904.534zM477.866 358.4c-5.688 0-8.534 5.688-5.688 8.534l108.088 247.466h-17.066c-42.666 2.844-110.934 5.688-150.756 8.534l-54.044-82.488c0-2.844-2.844-2.844-5.688-2.844h-51.2c-5.688 0-8.534 5.688-5.688 8.534l36.978 128-36.978 125.156c0 5.688 2.844 8.534 5.688 8.534h51.2c2.844 0 5.688 0 5.688-2.844l54.044-82.488c39.822 2.844 108.088 8.534 150.756 8.534h14.222l-108.088 247.466c-2.844 5.688 0 8.534 5.688 8.534h62.578c2.844 0 5.688 0 5.688-2.844l179.2-250.312c176.356 0 258.844-19.912 258.844-62.578 0-39.822-76.8-59.734-244.622-59.734-5.688 0-8.534 0-14.222 0l-179.2-250.312c0-2.844-2.844-2.844-5.688-2.844h-59.734zM1863.112 861.866h-483.556c-17.066 0-28.444 11.378-28.444 28.444s11.378 28.444 28.444 28.444h483.556c17.066 0 28.444-11.378 28.444-28.444s-14.222-28.444-28.444-28.444zM1863.112 662.756h-483.556c-17.066 0-28.444 11.378-28.444 28.444s11.378 28.444 28.444 28.444h483.556c17.066 0 28.444-11.378 28.444-28.444s-14.222-28.444-28.444-28.444zM1863.112 463.644h-483.556c-17.066 0-28.444 11.378-28.444 28.444s11.378 28.444 28.444 28.444h483.556c17.066 0 28.444-11.378 28.444-28.444s-14.222-28.444-28.444-28.444z" />
<glyph unicode="&#xe03d;" glyph-name="ticket-outline" d="M1922.844 1319.822c31.288 0 68.266-25.6 68.266-59.734v-88.178h-1937.066v88.178c0 31.288 36.978 59.734 68.266 59.734h1811.912zM1922.844 1373.866h-1800.534c-68.266 0-122.312-54.044-122.312-122.312 0 0 0-975.644 0-975.644 0-68.266 51.2-113.778 119.466-113.778h1800.534c68.266 0 125.156 48.356 125.156 113.778v975.644c0 68.266-54.044 122.312-122.312 122.312v0zM1223.112 1123.556h768v-839.112c0-31.288-25.6-68.266-59.734-68.266h-708.266v907.378zM1166.222 219.022h-1043.912c-31.288 0-68.266 34.134-68.266 68.266v836.266h1112.178v-904.534zM475.022 358.4c-5.688 0-8.534 5.688-5.688 8.534l108.088 247.466h-17.066c-42.666 2.844-110.934 5.688-150.756 8.534l-54.044-82.488c0-2.844-2.844-2.844-5.688-2.844h-51.2c-5.688 0-8.534 5.688-5.688 8.534l36.978 128-36.978 125.156c0 5.688 2.844 8.534 5.688 8.534h51.2c2.844 0 5.688 0 5.688-2.844l54.044-82.488c39.822 2.844 108.088 8.534 150.756 8.534h14.222l-108.088 247.466c-2.844 5.688 0 8.534 5.688 8.534h62.578c2.844 0 5.688 0 5.688-2.844l179.2-250.312c176.356 0 258.844-19.912 258.844-62.578 0-39.822-76.8-59.734-244.622-59.734-5.688 0-8.534 0-14.222 0l-179.2-250.312c0-2.844-2.844-2.844-5.688-2.844h-59.734zM1863.112 861.866h-483.556c-17.066 0-28.444 11.378-28.444 28.444s11.378 28.444 28.444 28.444h483.556c17.066 0 28.444-11.378 28.444-28.444s-14.222-28.444-28.444-28.444zM1863.112 662.756h-483.556c-17.066 0-28.444 11.378-28.444 28.444s11.378 28.444 28.444 28.444h483.556c17.066 0 28.444-11.378 28.444-28.444s-14.222-28.444-28.444-28.444zM1863.112 463.644h-483.556c-17.066 0-28.444 11.378-28.444 28.444s11.378 28.444 28.444 28.444h483.556c17.066 0 28.444-11.378 28.444-28.444s-14.222-28.444-28.444-28.444z" />
<glyph unicode="&#xe03e;" glyph-name="tickets" d="M0.54 179.428c0-67.868 52.536-114.83 120.406-114.83h1544.448c67.868 0 125.354 46.962 125.354 114.83v226.76h134.514c67.868 0 122.88 55.012 122.88 122.88v826.824c0 67.868-55.012 122.88-122.88 122.88v0h-1544.448c-67.868 0-122.88-55.012-122.88-122.88v-277.56h-134.514c-67.868 0-122.88-55.012-122.88-122.88v-776.022zM1790.748 955.448c0 67.868-55.012 122.88-122.88 122.88v0h-1345.962v161.622h1669.49v-710.884c0-32.456-33.678-58.88-66.134-58.88h-134.514v485.262c0 67.868-55.012 122.88-122.88 122.88v0zM967.452 827.336h769.194v-639.004c0-32.456-26.424-67.044-58.88-67.044h-710.314v706.048zM910.564 121.288h-787.144c-32.456 0-68.58 34.56-68.58 67.044v639.004h855.722v-706.048zM384.2 223.318c-3.982 0-6.656 4.068-5.034 7.708l87.808 200.476-13.54 0.484c-34.844 1.194-90.596 5.32-122.254 7.766l-43.52-67.128c-1.024-1.564-2.73-3.1-4.608-3.128h-41.528c-3.698-0.056-6.4 3.498-5.348 7.026l29.724 102.372-29.724 100.494c-1.052 3.528 1.592 7.054 5.262 7.054l42.354-0.028c1.906 0 3.67-0.968 4.694-2.588l42.61-66.93c31.858 2.276 87.95 6.116 122.936 7.424l12.374 0.456-87.068 199.652c-1.592 3.64 1.080 7.708 5.034 7.708h50.518c1.792 0 3.498-0.882 4.552-2.332l144.014-202.496c143.246-0.086 210.006-16.014 210.006-50.090 0-33.166-63.090-48.612-198.542-48.612-3.64 0-7.31 0-10.98 0.028l-143.644-202.838c-1.052-1.48-2.73-2.332-4.552-2.36l-51.542-0.114zM1592.888 597.334h-483.556c-15.73 0-28.444 12.714-28.444 28.444s12.714 28.444 28.444 28.444h483.556c15.73 0 28.444-12.714 28.444-28.444s-12.714-28.444-28.444-28.444zM1592.888 455.112h-483.556c-15.73 0-28.444 12.714-28.444 28.444s12.714 28.444 28.444 28.444h483.556c15.73 0 28.444-12.714 28.444-28.444s-12.714-28.444-28.444-28.444zM1592.888 312.888h-483.556c-15.73 0-28.444 12.714-28.444 28.444s12.714 28.444 28.444 28.444h483.556c15.73 0 28.444-12.714 28.444-28.444s-12.714-28.444-28.444-28.444z" />
<glyph unicode="&#xe03f;" glyph-name="tickets-outline" d="M1667.868 1023.232c32.456 0 68.778-26.424 68.778-58.88v-87.524h-1681.834v87.524c0 32.456 36.124 58.88 68.58 58.88h1554.346zM0.54 179.428c0-67.868 52.536-114.83 120.406-114.83h1544.448c67.868 0 125.354 46.962 125.354 114.83v226.76h134.514c67.868 0 122.88 55.012 122.88 122.88v826.824c0 67.868-55.012 122.88-122.88 122.88v0h-1544.448c-67.868 0-122.88-55.012-122.88-122.88v-277.56h-134.514c-67.868 0-122.88-55.012-122.88-122.88v-776.022zM321.934 1294.166v61.752c0 32.456 26.424 58.88 58.88 58.88h1551.702c32.456 0 58.88-26.424 58.88-58.88v-61.752h-1669.462zM1790.748 955.448c0 67.868-55.012 122.88-122.88 122.88v0h-1345.962v161.622h1669.49v-710.884c0-32.456-33.678-58.88-66.134-58.88h-134.514v485.262c0 67.868-55.012 122.88-122.88 122.88v0zM967.452 827.336h769.194v-639.004c0-32.456-26.424-67.044-58.88-67.044h-710.314v706.048zM910.564 121.288h-787.144c-32.456 0-68.58 34.56-68.58 67.044v639.004h855.722v-706.048zM384.2 223.318c-3.982 0-6.656 4.068-5.034 7.708l87.808 200.476-13.54 0.484c-34.844 1.194-90.596 5.32-122.254 7.766l-43.52-67.128c-1.024-1.564-2.73-3.1-4.608-3.128h-41.528c-3.698-0.056-6.4 3.498-5.348 7.026l29.724 102.372-29.724 100.494c-1.052 3.528 1.592 7.054 5.262 7.054l42.354-0.028c1.906 0 3.67-0.968 4.694-2.588l42.61-66.93c31.858 2.276 87.95 6.116 122.936 7.424l12.374 0.456-87.068 199.652c-1.592 3.64 1.080 7.708 5.034 7.708h50.518c1.792 0 3.498-0.882 4.552-2.332l144.014-202.496c143.246-0.086 210.006-16.014 210.006-50.090 0-33.166-63.090-48.612-198.542-48.612-3.64 0-7.31 0-10.98 0.028l-143.644-202.838c-1.052-1.48-2.73-2.332-4.552-2.36l-51.542-0.114zM1592.888 597.334h-483.556c-15.73 0-28.444 12.714-28.444 28.444s12.714 28.444 28.444 28.444h483.556c15.73 0 28.444-12.714 28.444-28.444s-12.714-28.444-28.444-28.444zM1592.888 455.112h-483.556c-15.73 0-28.444 12.714-28.444 28.444s12.714 28.444 28.444 28.444h483.556c15.73 0 28.444-12.714 28.444-28.444s-12.714-28.444-28.444-28.444zM1592.888 312.888h-483.556c-15.73 0-28.444 12.714-28.444 28.444s12.714 28.444 28.444 28.444h483.556c15.73 0 28.444-12.714 28.444-28.444s-12.714-28.444-28.444-28.444z" />
<glyph unicode="&#xe040;" glyph-name="headset" d="M1641.244 130.844h-219.022c-34.134 0-62.578 28.444-62.578 62.578v577.422c0 34.134 28.444 62.578 62.578 62.578h219.022c34.134 0 62.578-28.444 62.578-62.578v-580.266c0-34.134-28.444-59.734-62.578-59.734zM403.912 833.422h219.022c34.134 0 62.578-28.444 62.578-62.578v-580.266c0-34.134-28.444-62.578-62.578-62.578h-219.022c-34.134 0-62.578 28.444-62.578 62.578v580.266c0 34.134 28.444 62.578 62.578 62.578zM1035.378 1792c253.156 0 492.088-93.866 671.288-267.378 179.2-170.666 278.756-386.844 278.756-628.622s-51.2-617.244-51.2-617.244c0-17.066-17.066-31.288-36.978-31.288h-85.334c-11.378 0-22.756 8.534-22.756 19.912v625.778c2.844 384-335.644 696.888-739.556 705.422h-54.044c-401.066-8.534-739.556-321.422-739.556-702.578v-625.778c0-11.378-8.534-19.912-22.756-19.912h-85.334c-19.912 0-34.134 14.222-36.978 31.288 0 0-51.2 372.622-51.2 617.244s99.556 457.956 278.756 628.622c182.044 170.666 420.978 264.534 674.134 264.534h22.756zM1462.044-88.178c190.578 0 352.712 153.6 352.712 335.644v5.688h99.556v-5.688c0-236.088-207.644-435.2-452.266-435.2h-170.666c-19.912-39.822-62.578-68.266-113.778-68.266h-270.222c-71.112 0-128 56.888-128 128v0c0 71.112 56.888 128 128 128h270.222c56.888 0 102.4-36.978 119.466-85.334l164.978-2.844z" />
<glyph unicode="&#xe041;" glyph-name="flagalt" d="M386.844 1723.734c17.066 0 31.288-14.222 31.288-34.134v-62.578c39.822 25.6 116.622 65.422 264.534 65.422 122.312 0 250.312-56.888 398.222-110.934 153.6-56.888 284.444-110.934 392.534-110.934 130.844 0 224.712 31.288 292.978 59.734 14.222 5.688 31.288 2.844 42.666-8.534 8.534-8.534 11.378-17.066 8.534-28.444l-2.844-824.888c0-14.222-5.688-25.6-17.066-34.134-48.356-28.444-156.444-99.556-332.8-99.556-122.312 0-273.066 56.888-438.044 110.934-150.756 48.356-261.688 96.712-378.312 96.712-108.088 0-176.356-14.222-219.022-25.6l-11.378-2.844v-867.556c0-17.066-14.222-34.134-34.134-34.134h-122.312c-17.066 0-34.134 14.222-34.134 34.134v1846.044c0 17.066 17.066 31.288 34.134 31.288h125.156z" />
<glyph unicode="&#xe042;" glyph-name="flag" d="M1860.266 1547.378c-19.912 19.912-54.044 28.444-82.488 17.066-65.422-25.6-167.822-56.888-278.756-56.888-88.178 0-236.088 54.044-378.312 108.088-156.444 59.734-307.2 113.778-409.6 113.778-125.156 0-213.334-31.288-264.534-59.734v28.444c0 25.6-8.534 48.356-28.444 65.422-17.066 17.066-39.822 28.444-65.422 28.444h-93.866c-25.6 0-48.356-8.534-65.422-28.444-17.066-17.066-28.444-39.822-28.444-65.422v-1860.266c0-51.2 42.666-93.866 93.866-93.866v0h93.866c51.2 0 93.866 42.666 93.866 93.866v836.266c31.288 11.378 108.088 31.288 227.556 31.288 76.8 0 224.712-48.356 366.934-96.712 167.822-54.044 338.488-113.778 449.422-113.778 167.822 0 301.512 73.956 349.866 105.244 22.756 14.222 34.134 36.978 34.134 62.578l2.844 824.888c5.688 25.6-2.844 45.512-17.066 59.734zM352.712-190.578h-93.866c-17.066 0-28.444 14.222-28.444 28.444v1860.266c0 8.534 2.844 14.222 8.534 19.912s14.222 8.534 19.912 8.534h93.866c17.066 0 28.444-14.222 28.444-28.444v-1860.266c2.844-17.066-11.378-28.444-28.444-28.444zM1814.756 668.444c0-2.844-2.844-8.534-5.688-8.534-45.512-28.444-164.978-96.712-315.734-96.712-102.4 0-267.378 56.888-429.512 108.088-153.6 51.2-298.666 99.556-386.844 99.556-108.088 0-182.044-14.222-224.712-28.444v856.178c31.288 19.912 119.466 65.422 261.688 65.422 91.022 0 241.778-56.888 386.844-110.934 156.444-56.888 301.512-113.778 401.066-113.778 122.312 0 233.244 34.134 301.512 62.578 5.688 2.844 8.534 0 11.378-2.844s2.844-2.844 2.844-8.534l-2.844-822.044z" />
<glyph unicode="&#xe043;" glyph-name="egencia-birdalt" d="M14.222 1066.666c-19.912-2.844-19.912-31.288 2.844-28.444 31.288 2.844 182.044 5.688 318.578-8.534 156.444-14.222 310.044-56.888 429.512-96.712s386.844-190.578 386.844-190.578-321.422-193.422-418.134-480.712c-5.688-14.222 2.844-19.912 22.756-8.534 412.444 258.844 699.734 418.134 1211.734 523.378 31.288 5.688 28.444 11.378 0 17.066-28.444 8.534-130.844 25.6-392.534 125.156s-514.844 187.734-804.978 210.488c-42.666 2.844-85.334 5.688-130.844 5.688-301.512 0-617.244-65.422-625.778-68.266zM2033.778 1280c-76.8-99.556-238.934-227.556-401.066-295.822-19.912-8.534-14.222-22.756-5.688-28.444 2.844-2.844 14.222-5.688 31.288-11.378l221.866-71.112c17.066-5.688 17.066-5.688 25.6 2.844 108.088 116.622 142.222 287.288 142.222 398.222 0 0 0 14.222-2.844 14.222s-5.688 0-11.378-8.534z" />
<glyph unicode="&#xe044;" glyph-name="egencia-bird" d="M748.088 230.4c-14.222 0-25.6 5.688-34.134 17.066-5.688 8.534-11.378 22.756-5.688 42.666 73.956 221.866 275.912 386.844 369.778 452.266-79.644 42.666-238.934 128-318.578 153.6-147.912 51.2-284.444 79.644-406.756 91.022-76.8 8.534-156.444 8.534-210.488 8.534-45.512 0-76.8 0-88.178-2.844h-2.844c-25.6 0-48.356 17.066-48.356 42.666-2.844 25.6 17.066 48.356 42.666 54.044h5.688c99.556 19.912 358.4 62.578 603.022 62.578 45.512 0 88.178-2.844 128-5.688 275.912-22.756 512-102.4 787.912-204.8 221.866-82.488 324.266-105.244 361.244-116.622 5.688 0 11.378-2.844 14.222-2.844 17.066-2.844 48.356-11.378 48.356-42.666s-31.288-36.978-48.356-39.822c-503.466-102.4-787.912-264.534-1160.534-500.622-14.222-5.688-25.6-8.534-36.978-8.534zM290.134 1060.978c22.756 0 48.356-2.844 71.112-5.688 128-11.378 270.222-42.666 423.822-96.712 116.622-39.822 369.778-179.2 378.312-187.734l51.2-28.444-48.356-28.444c-2.844-2.844-250.312-153.6-361.244-378.312 327.112 204.8 594.488 352.712 1021.156 452.266-59.734 17.066-150.756 45.512-278.756 93.866-273.066 102.4-500.622 182.044-770.844 201.956-36.978 2.844-79.644 5.688-125.156 5.688-125.156-2.844-253.156-14.222-361.244-28.444zM1609.956 1012.622c145.066 68.266 301.512 193.422 364.088 273.066 5.688 5.688 17.066 22.756 36.978 22.756 0 0 8.534 0 14.222-2.844 8.534-2.844 11.378-8.534 11.378-8.534 8.534-8.534 11.378-19.912 11.378-36.978 0-105.244-28.444-250.312-108.088-364.088l-65.422 22.756c56.888 76.8 91.022 179.2 102.4 261.688-71.112-73.956-170.666-145.066-270.222-199.112l-96.712 31.288z" />
<glyph unicode="&#xe045;" glyph-name="briefcase-filled" d="M1982.578 713.956c0 0-22.756-34.134-88.178-48.356-56.888-11.378-750.934-167.822-750.934-167.822v-128c0-11.378-8.534-19.912-19.912-19.912h-196.266c-11.378 0-19.912 8.534-19.912 19.912v125.156c0 0-702.578 162.134-748.088 170.666-56.888 14.222-91.022 42.666-91.022 42.666v-674.134c0-68.266 54.044-122.312 122.312-122.312h1669.688c68.266 0 122.312 54.044 122.312 122.312v679.822zM634.312 1473.422c0 11.378 8.534 19.912 19.912 19.912h731.022c11.378 0 19.912-8.534 19.912-19.912v-147.912h-770.844v147.912zM503.466 1325.512h-310.044c-68.266 0-122.312-54.044-122.312-122.312v-324.266c0-56.888 39.822-108.088 96.712-119.466l733.866-167.822v108.088c0 11.378 8.534 19.912 19.912 19.912h201.956c11.378 0 19.912-8.534 19.912-19.912v-105.244l745.244 164.978c54.044 14.222 93.866 62.578 93.866 119.466v324.266c0 68.266-54.044 122.312-122.312 122.312h-324.266v238.934c0 34.134-28.444 62.578-62.578 62.578h-910.222c-34.134 0-62.578-28.444-62.578-62.578l2.844-238.934z" />
<glyph unicode="&#xe047;" glyph-name="global-filled" d="M1644.658 330.724c-5.234-0.284-9.074-2.504-9.558-4.494-70.088-213.504-180.252-356.58-260.352-439.21-38.258-38.258-76.516-73.472-110.734-102.002-2.986-2.474-2.702-5.462-1.962-7.51 0.398-1.024 3.044-6.628 9.444-4.892 247.864 61.27 463.018 213.816 605.866 429.512 0.426 0.654 0.882 2.39 0.398 4.694-0.456 2.304-1.508 3.754-2.104 4.182-44.63 30.634-120.69 76.174-230.998 119.722zM967.168 447.944c-224.54-7.14-399.474-53.192-483.954-80.042-3.414-1.878-6.030-6.656-4.808-11.606 51.114-150.358 134.372-284.36 247.154-397.112 97.764-100.864 191.716-159.204 239.018-185.032 1.962-1.166 3.498-1.592 4.92-1.592 1.28 0 5.49 0.456 5.49 6.286v657.608c-0.028 4.608-3.528 9.614-7.822 11.492zM381.27 323.328l-3.812-1.224c-75.662-30.294-142.592-66.532-204.658-110.876l-3.414-2.218c-0.228-0.682-0.284-3.528 2.162-8.42 137.244-208.526 347.364-360.050 590.792-425.188l2.19-0.284c4.864 0 6.684 4.38 7.026 5.262 0.74 2.048 1.024 5.034-1.962 7.51-121.856 95.318-287.432 265.16-382.236 531.172-1.080 1.992-3.754 4.266-6.088 4.266zM1061.49 434.46v-649.898c0-6.712 5.32-10.496 9.928-7.822 125.384 71.282 351.944 241.92 463.872 586.268 0.37 1.82-1.592 6.884-4.238 7.538-149.816 45.256-300.516 69.576-461.34 74.524-2.248 0.028-6.258-4.408-8.22-10.61zM1667.3 437.874c0.398-5.944 3.272-10.212 4.522-10.808 130.418-47.702 215.524-101.148 254.664-128.824l3.754-2.418c1.194 0 2.844 0.768 3.896 2.844 74.552 140.544 113.864 301.796 113.864 466.632 0 162.36-36.352 317.384-108.088 460.828-3.1 6.23-8.874 3.982-12.402 2.19-74.696-48.47-161.024-91.648-255.146-127.488-6.912-3.556-6.116-6.684-5.546-8.988 25.144-103.85 37.916-212.708 37.916-323.67 0-112.896-12.6-224-37.432-330.296zM114.858 1226.808c-1.848 0-5.206-0.456-6.77-3.556-70.712-141.426-108.088-299.776-108.088-457.956 0-163.384 37.32-319.374 110.904-463.644 2.162-4.324 6.542-6.456 10.24-3.67 68.522 47.132 145.608 88.206 229.604 122.368 5.832 4.324 4.95 7.794 4.466 9.728-27.080 102.23-40.818 216.036-40.818 338.090 0 112.584 12.26 219.704 37.462 327.396-0.398 6.002-3.272 10.268-4.552 10.866-87.41 35.384-164.040 75.69-228.552 120.036-0.056-0.114-2.076 0.342-3.896 0.342zM448.256 1069.994c-1.252 0-3.67-2.134-4.466-5.348-22.67-100.352-34.19-200.22-34.19-296.476 0-114.46 15.928-217.486 31.488-303.16 0.37-1.336 6.542-4.324 11.15-3.016 165.632 50.404 329.074 76.26 513.706 81.18 3.954 0 6.144 2.218 6.144 5.774v432.668c0 3.556-2.218 5.774-5.774 5.774-185.032 4.92-348.472 30.776-514.76 81.38l-3.3 1.224zM1563.534 1063.14c-143.132-44.118-313.032-70.286-492.97-75.72-3.982 0-6.172-2.218-6.172-5.774v-432.668c0-3.556 2.19-5.774 5.746-5.774 172.458-5.206 337.72-31.63 491.69-78.506l3.328-1.224c1.252 0 3.67 2.104 4.438 5.348 23.296 106.524 34.162 201.814 34.162 299.35 0 93.696-11.208 188.9-34.218 291.044-0.882 3.498-4.494 3.926-6.002 3.926zM1071.332 1751.836c-3.954 0-8.932-4.466-10.040-11.094l0.2-652.402c0-2.504 4.096-5.688 8.476-5.774 160.598 4.978 316.444 30.008 463.304 74.382 3.214 1.848 5.832 6.6 4.58 11.52-115.968 353.82-362.61 525.112-463.274 582.314-1.308 0.768-2.276 1.052-3.242 1.052zM967.992 1751.836c-0.968 0-1.906-0.284-2.902-0.882-105.928-56.52-364.402-225.194-489.984-578.020-0.228-1.166 0.114-4.266 1.28-6.742 0.824-1.792 1.962-2.986 3.016-3.272 140.714-44.772 313.344-72.164 487.082-77.454 5.974 0.086 8.362 4.608 8.476 5.832v651.832c0 5.206-3.612 8.704-6.968 8.704zM1250.646 1763.726c-3.498 0-5.176-2.134-5.944-4.238-0.854-2.276-1.166-5.546 1.992-8.164 183.154-143.36 318.492-334.222 390.968-551.708 1.906-3.528 5.832-6.4 7.624-6.4 0.2 0 0.512 0.028 1.080 0.312 113.18 45.312 190.18 90.368 234.98 120.264 0.484 0.882 1.678 3.498 1.678 4.864l-2.816 3.982c-42.696 64.114-85.22 116.566-133.746 165.092-134.798 137.586-305.92 232.96-494.904 275.94-0.312 0.056-0.598 0.056-0.91 0.056zM776.106 1758.322c-252.7-62.208-468.85-217.77-611.1-438.386-1.48-2.218-0.37-7.68 1.65-9.016 63.488-43.946 133.376-81.294 207.9-111.104l0.768 0.284c4.38 0 8.22 2.218 8.732 4.21 93.468 274.488 266.24 445.98 394.78 541.724 3.3 2.36 4.408 4.892 3.528 7.68-0.682 2.134-2.73 4.608-6.258 4.608z" />
<glyph unicode="&#xe048;" glyph-name="global" d="M2047.318 767.318c1.224 565.162-458.154 1023.318-1023.318 1023.318s-1023.318-458.154-1023.318-1023.318c0-559.502 449.080-1012.906 1006.422-1022.862 2.332-0.996 4.068-1.706 4.324-1.82l0.654 1.678c3.982-0.056 7.908-0.312 11.918-0.312 0.598 0 1.138 0 1.736 0 3.498 0 6.912 0.228 10.382 0.256l0.598-1.422c0.456 0.17 1.792 0.74 3.612 1.536 557.084 7.822 1005.768 460.886 1006.99 1022.948zM1866.98 310.728c-44.488 31.602-133.632 87.552-265.642 137.216 23.922 94.89 38.628 201.444 38.628 321.11 0 115.826-14.052 219.734-37.66 312.888 136.76 49.92 226.872 106.382 269.398 136.534 73.272-137.216 111.986-291.158 111.644-450.986-0.342-165.262-42.496-320.882-116.366-456.76zM443.79 769.024c0 110.052 15.844 208.47 38.656 296.504 129.564-42.638 285.554-76.942 513.11-80.1v-438.328c-227.556-3.754-382.89-39.054-512.086-82.744-24.746 95.146-39.68 196.75-39.68 304.668zM1052.444 1703.566c113.778-54.528 360.448-222.692 470.216-579.67-123.506-39.48-271.104-71.224-470.216-74.496v654.166zM995.556 1049.372c-199.112 3.242-368.328 37.206-492.744 78.62 116.424 356.182 378.966 522.922 492.744 576v-654.62zM995.556 483.128v-660.28c-56.888 28.472-156.644 87.978-255.118 188.018-110.792 112.498-189.384 243.286-237.738 390.968 124.046 42.496 293.746 77.454 492.856 81.294zM1052.444 483.242c199.112-2.93 345.43-35.926 469.476-77-110.194-360.618-355.698-529.096-469.476-583.624v660.622zM1052.444 547.186v438.244c199.112 3.242 360.192 35.414 488.534 76.032 21.162-87.012 34.39-184.092 34.39-292.438 0-111.388-13.768-211-35.356-300.088-128.768 42.098-288.456 75.406-487.566 78.25zM1839.246 1274.056c-35.812-25.572-121.258-80.44-254.52-129.678-97.564 309.248-302.166 487.368-431.928 573.554 208.072-27.704 400.298-122.168 551.082-273.294 52.11-52.224 97.224-109.54 135.368-170.582zM883.684 1716.31c-136.136-85.532-345.144-260.124-445.782-566.556-121.288 47.19-196.636 98.248-228.92 122.88 145.976 234.552 390.172 401.806 674.702 443.676zM176.668 1216.568c39.652-29.866 119.268-82.090 242.858-129.48-24.888-94.322-39.68-199.908-39.68-318.066 0-121.316 15.502-229.746 41.614-326.456-121.572-47.758-200.562-100.352-240.982-131.328-73.842 135.766-115.826 291.158-115.826 456.078-0.028 162.248 40.618 315.136 112.014 449.252zM213.504 255.602c33.536 25.97 108.26 77.142 226.93 124.472 98.474-294.742 295.736-469.59 430.62-559.53-276.28 44.856-513.308 207.844-657.55 435.058zM1169.976-181.106c50.318 34.702 109.768 82.232 169.558 145.522 87.040 92.104 184.52 229.718 244.196 420.694 127.232-48.584 211.768-102.428 250.368-129.82-145.55-229.774-385.28-393.842-664.12-436.394z" />
<glyph unicode="&#xe049;" glyph-name="thumbs-up-filled" d="M510.236 6.656v-48.184c0-40.618-33.052-73.642-73.642-73.642h-336.44c-40.618 0-73.642 33.052-73.642 73.642v976.498c0 40.618 33.052 73.642 73.642 73.642h336.44c40.618 0 73.642-33.052 73.642-73.642v-928.312zM627.912 905.984c114.574 92.928 341.448 291.186 431.474 470.67 7.168 14.308 14.28 28.984 21.39 43.72 54.954 113.436 111.758 230.77 221.696 230.77 52.082 0 91.306-18.262 116.594-54.216 46.136-65.736 40.334-184.292-16.84-342.812-40.676-112.696-105.102-203.32-136.818-243.94h603.192c81.436 0 152.888-72.192 152.888-154.482 0-110.62-50.632-149.304-91.136-172.26 22.5-30.692 32.228-65.678 30.52-108.686-3.186-77.596-38.94-138.524-101.206-173.398 24.292-33.878 37.49-74.638 37.49-116.48 0-77.624-43.832-146.716-112.868-180.11 10.126-20.878 15.446-43.464 15.446-66.218 0-89.060-66.646-153.714-158.464-153.714h-566.556c-106.354 0-209.352 22.328-306.176 66.36l-140.63 55.466v899.328z" />
<glyph unicode="&#xe04a;" glyph-name="thumbs-up-outline" d="M1597.752-139.378h-582.088c-109.256 0-215.096 22.954-314.568 68.152l-144.498 57.002v-49.494c0-41.728-33.934-75.662-75.662-75.662h-345.686c-41.728 0-75.662 33.934-75.662 75.662v1003.264c0 41.728 33.934 75.662 75.662 75.662h345.656c41.728 0 75.662-33.934 75.662-75.662v-29.752c117.704 95.488 350.806 299.178 443.306 483.584 7.368 14.706 14.678 29.782 21.988 44.914 56.52 116.536 114.858 237.084 227.812 237.084 53.504 0 93.81-18.744 119.78-55.694 47.416-67.556 41.444-189.326-17.294-352.228-41.784-115.768-107.976-208.896-140.544-250.624h619.72c83.656 0 157.070-74.154 157.070-158.72 0-113.664-52.024-153.4-93.64-176.982 23.096-31.544 33.11-67.498 31.374-111.672-3.272-79.73-39.992-142.336-103.964-178.176 24.946-34.816 38.514-76.686 38.514-119.666 0-79.758-45.028-150.756-115.968-185.060 10.41-21.448 15.872-44.658 15.872-68.040-0.028-91.478-68.494-157.896-162.844-157.896zM562.432 52.964l162.958-64.996c92.842-42.154 190.18-63.346 290.248-63.346h582.116c60.018 0 98.816 36.864 98.816 93.924 0 17.066-4.778 33.48-14.194 48.754l-31.090 50.688 50.204 19.712c30.35 11.918 57.458 32.2 74.326 60.104 33.394 55.24 25.002 121.174-13.312 165.944l-42.894 50.034 59.848 27.592c52.31 24.12 80.128 68.124 82.66 130.73 1.394 33.992-6.514 57.998-26.34 80.242l-41.984 47.076 55.552 29.866c40.248 21.646 75.008 40.334 75.008 128.824 0 48.668-45.256 94.72-93.070 94.72h-714.41c-17.608 0-27.022 20.764-15.388 33.992l42.696 48.64c0.968 1.138 96.2 110.792 147.74 253.696 49.18 136.334 58.596 246.13 25.144 293.718-13.654 19.456-35.072 28.502-67.384 28.502-72.818 0-122.282-102.144-170.126-200.904-7.538-15.53-14.934-30.834-22.414-45.796-106.154-211.656-374.442-436.992-493.738-530.518l-0.968-781.198zM135.254 951.21c-6.428 0-11.662-5.234-11.662-11.662v-1003.264c0-6.456 5.234-11.662 11.662-11.662h345.656c6.428 0 11.662 5.234 11.662 11.662v1003.264c0 6.428-5.234 11.662-11.662 11.662h-345.656z" />
<glyph unicode="&#xe04b;" glyph-name="heartalt" d="M1024 1388.088c-34.134 54.044-62.578 113.778-125.156 184.888-96.712 110.934-227.556 164.978-372.622 164.978-136.534 0-267.378-59.734-358.4-164.978l-2.844-2.844c-5.688-8.534-164.978-184.888-164.978-423.822 0-827.734 1001.244-1336.888 1012.622-1342.578 2.844 0 5.688-2.844 8.534-2.844h5.688c5.688 0 8.534 0 11.378 2.844 8.534 2.844 1009.778 514.844 1009.778 1342.578 0 241.778-159.288 418.134-164.978 423.822l-2.844 2.844c-91.022 105.244-221.866 164.978-358.4 164.978-145.066 0-275.912-59.734-372.622-164.978-65.422-71.112-91.022-130.844-125.156-184.888v0z" />
<glyph unicode="&#xe04c;" glyph-name="heart" d="M1024 1262.934c17.066 0 31.288 11.378 34.134 25.6 0 2.844 45.512 110.934 145.066 236.088 73.956 88.178 184.888 147.912 318.578 147.912 128 0 236.088-54.044 312.888-145.066 0 0 2.844-2.844 2.844-2.844 19.912-22.756 145.066-179.2 145.066-381.156 0-315.734-153.6-620.088-452.266-907.378-216.178-207.644-443.734-335.644-506.312-369.778v0l-5.688 2.844c-68.266 36.978-290.134 164.978-503.466 369.778-301.512 284.444-452.266 591.644-452.266 907.378 0 201.956 128 358.4 145.066 381.156 0 0 2.844 2.844 2.844 2.844 79.644 91.022 184.888 145.066 312.888 145.066 133.688 0 244.622-59.734 318.578-147.912 102.4-125.156 145.066-233.244 145.066-236.088 5.688-17.066 19.912-25.6 36.978-28.444v0zM1024 1388.088c-34.134 54.044-59.734 113.778-125.156 184.888-96.712 105.244-227.556 164.978-372.622 164.978-136.534 0-267.378-59.734-358.4-164.978l-2.844-2.844c-5.688-8.534-164.978-184.888-164.978-423.822 0-827.734 1001.244-1336.888 1012.622-1342.578 2.844 0 5.688-2.844 8.534-2.844h5.688c5.688 0 8.534 0 11.378 2.844 8.534 2.844 1009.778 514.844 1009.778 1342.578 0 241.778-159.288 418.134-164.978 423.822l-2.844 2.844c-91.022 105.244-221.866 164.978-358.4 164.978-145.066 0-275.912-59.734-372.622-164.978-65.422-71.112-91.022-130.844-125.156-184.888v0z" />
<glyph unicode="&#xe04d;" glyph-name="star" d="M1621.020-145.834v-20.964l0.056 20.906 0.17-0.114-0.17 0.256c-0.028 0-0.028 0-0.056 0v0c-0.028 0-0.086 0-0.114 0l0.114-0.086zM1621.020-208.896c-12.714 0-24.69 3.67-35.584 10.922l-561.436 390.428-561.152-390.258c-22.698-15.16-51.286-14.62-70.286 0.54-10.296 6.798-17.976 16.896-21.76 29.326-3.67 11.862-3.698 24.292-0.056 36.892l198.372 654.166-546.418 413.468c-9.642 7.652-16.27 17.55-19.912 29.582-3.67 11.776-3.698 24.206-0.056 36.836 3.896 11.862 11.008 21.39 21.276 28.842 9.7 7.054 20.792 11.492 32.968 13.256l685.284 12.772 225.736 647.708c3.698 11.122 10.78 20.65 21.020 28.104 20.508 14.876 49.408 14.934 69.974 0.028 10.24-7.48 17.352-16.982 21.134-28.274l225.706-647.538 683.492-12.658c13.91-1.906 25.002-6.344 34.73-13.34 10.212-7.48 17.322-16.982 21.134-28.302 3.784-13.226 3.754-25.628 0.114-37.49-3.698-12.004-10.296-21.874-19.656-29.298l-546.702-413.724 198.314-653.938c3.612-12.828 3.584-25.174 0-37.064-3.954-12.544-11.606-22.614-22.84-30.066-8.648-6.998-20.196-10.922-33.394-10.922z" />
</font>
</defs>
</svg>
