<?xml version="1.0" encoding="UTF-8" standalone="no"?>
<svg width="128px" height="18px" viewBox="0 0 128 18" version="1.1" xmlns="http://www.w3.org/2000/svg" xmlns:xlink="http://www.w3.org/1999/xlink">
    <!-- Generator: Sketch 39.1 (31720) - http://www.bohemiancoding.com/sketch -->
    <title>Logo</title>
    <desc>Created with Sketch.</desc>
    <defs></defs>
    <g id="Search-Bar" stroke="none" stroke-width="1" fill="none" fill-rule="evenodd">
        <g id="Abstracted-Desktop" transform="translate(-25.000000, -16.000000)">
            <g id="Header">
                <g id="Logo" transform="translate(25.000000, 16.000000)">
                    <path d="M125.3474,4.21712 L125.7426,4.21712 C126.0614,4.21712 126.1842,4.10592 126.1842,3.81832 C126.1842,3.52552 126.0658,3.42992 125.709,3.42992 L125.3474,3.42992 L125.3474,4.21712 Z M126.1898,5.45392 L125.7226,4.45392 L125.3474,4.45392 L125.3474,5.45392 L125.0746,5.45392 L125.0746,3.18232 L125.747,3.18232 C126.2478,3.18232 126.4566,3.40592 126.4566,3.81832 C126.4566,4.15192 126.2994,4.36432 126.0082,4.42472 L126.489,5.45392 L126.1898,5.45392 Z M125.747,2.68232 C124.8306,2.68232 124.101,3.40592 124.101,4.32192 C124.101,5.22712 124.8306,5.95312 125.7426,5.95312 C126.6482,5.95312 127.3762,5.22712 127.3762,4.32192 C127.3762,3.39872 126.667,2.68232 125.747,2.68232 L125.747,2.68232 Z M125.7426,6.11672 C124.7318,6.11672 123.9426,5.32912 123.9426,4.31752 C123.9426,3.30392 124.7318,2.52112 125.747,2.52112 C126.7422,2.52112 127.5426,3.31352 127.5426,4.29312 C127.5426,5.31712 126.7566,6.11672 125.7426,6.11672 L125.7426,6.11672 Z" id="Fill-3" fill="#FFFFFF"></path>
                    <path d="M109.16912,2.38952 C109.13912,2.35992 109.09552,2.34152 109.04992,2.34152 L106.71352,2.34152 C106.66952,2.34152 106.62552,2.35992 106.59352,2.38952 C106.56192,2.42312 106.54272,2.46752 106.54272,2.51192 L106.54272,3.92152 L106.54272,15.48472 L106.54272,15.57312 C106.54272,15.61752 106.56192,15.66272 106.59352,15.69632 C106.62552,15.72592 106.66792,15.74472 106.71352,15.74472 L109.04992,15.74472 C109.09312,15.74472 109.13912,15.72592 109.16912,15.69632 C109.20152,15.66272 109.21992,15.61752 109.21992,15.57312 L109.21992,14.16472 L109.21992,2.60112 L109.21992,2.51192 C109.21992,2.46752 109.20152,2.42312 109.16912,2.38952" id="Fill-1" fill="#FFFFFF"></path>
                    <path d="M48.04452,2.3454 L40.37252,2.3454 C40.27932,2.3454 40.20252,2.4218 40.20252,2.5158 L40.21172,15.5426 C40.21172,15.5858 40.22932,15.6302 40.26252,15.6614 C40.29412,15.6942 40.33652,15.713 40.38212,15.713 L48.05812,15.713 C48.10172,15.713 48.14732,15.6942 48.17852,15.6614 C48.21012,15.6302 48.22852,15.5858 48.22852,15.5426 L48.22852,13.6214 C48.22852,13.5778 48.21012,13.5322 48.17852,13.5002 C48.14732,13.469 48.10252,13.451 48.05812,13.451 L42.47892,13.451 L42.47892,10.3078 L47.32692,10.3078 C47.37292,10.3078 47.41572,10.2906 47.44812,10.259 C47.47972,10.2258 47.49812,10.185 47.49812,10.1382 L47.49812,8.1854 C47.49812,8.1386 47.47932,8.0966 47.44812,8.0646 C47.41652,8.0326 47.37252,8.0134 47.32692,8.0134 L42.51212,8.0134 L42.51172,4.603 L48.04452,4.603 C48.08932,4.603 48.13292,4.5846 48.16452,4.5526 C48.19572,4.5206 48.21372,4.4786 48.21372,4.4322 L48.21372,2.5174 C48.21372,2.4726 48.19572,2.4274 48.16452,2.3954 C48.13292,2.3634 48.08932,2.3454 48.04452,2.3454" id="Fill-6" fill="#FFFFFF"></path>
                    <path d="M74.33932,2.3454 L66.66932,2.3454 C66.57532,2.3454 66.49892,2.4218 66.49892,2.5158 L66.50812,15.5426 C66.50732,15.5858 66.52572,15.6302 66.55772,15.6614 C66.58972,15.6942 66.63252,15.713 66.67732,15.713 L74.35332,15.713 C74.39892,15.713 74.44292,15.6942 74.47492,15.6614 C74.50692,15.6302 74.52492,15.5858 74.52492,15.5426 L74.52492,13.6214 C74.52492,13.5778 74.50692,13.5322 74.47492,13.5002 C74.44292,13.469 74.39892,13.451 74.35332,13.451 L68.77572,13.451 L68.77572,10.3078 L73.62292,10.3078 C73.66892,10.3078 73.71132,10.2906 73.74292,10.259 C73.77532,10.2258 73.79452,10.185 73.79452,10.1382 L73.79452,8.1854 C73.79452,8.1386 73.77532,8.0966 73.74292,8.0646 C73.71212,8.0326 73.66812,8.0134 73.62292,8.0134 L68.80812,8.0134 L68.80732,4.603 L74.33932,4.603 C74.38492,4.603 74.42732,4.5846 74.45972,4.5526 C74.49212,4.5206 74.50972,4.4786 74.50972,4.4322 L74.50972,2.5174 C74.50972,2.4726 74.49212,2.4274 74.45972,2.3954 C74.42732,2.3634 74.38492,2.3454 74.33932,2.3454" id="Fill-8" fill="#FFFFFF"></path>
                    <path d="M89.3632,2.3454 L87.1836,2.3454 C87.136,2.3454 87.0936,2.3646 87.0628,2.3978 C87.0288,2.4294 87.0096,2.4734 87.0096,2.519 L87.0096,10.8806 L80.3256,2.4122 C80.2916,2.3694 80.242,2.3462 80.1892,2.3462 L78.0696,2.3438 C78.024,2.3438 77.9796,2.3614 77.948,2.3938 C77.9148,2.4266 77.8968,2.4706 77.8968,2.5174 L77.8968,15.5398 C77.8968,15.5826 77.9156,15.6302 77.948,15.6614 C77.9796,15.6942 78.024,15.713 78.0696,15.713 L80.2508,15.713 C80.2956,15.713 80.3412,15.6942 80.3732,15.6614 C80.4044,15.6302 80.424,15.5826 80.424,15.5398 L80.424,6.9674 L87.2704,15.6442 C87.3056,15.6902 87.3524,15.713 87.4092,15.713 L89.3632,15.713 C89.4108,15.713 89.4544,15.6942 89.4872,15.6614 C89.5192,15.6302 89.5368,15.5842 89.5368,15.5398 L89.5368,2.519 C89.5368,2.4734 89.5192,2.4294 89.4872,2.3978 C89.4544,2.3646 89.4108,2.3454 89.3632,2.3454" id="Fill-10" fill="#FFFFFF"></path>
                    <path d="M92.20412,9.15236 C92.20252,11.56156 93.21972,13.27196 94.55732,14.36196 C95.89692,15.45156 97.54372,15.93436 98.85052,15.93636 C101.98332,15.93636 103.53212,14.41716 104.07412,13.70436 C104.13132,13.64676 104.14532,13.48116 104.03252,13.41796 L102.39292,12.55196 C102.29412,12.50116 102.10852,12.49956 101.97652,12.61836 C101.17652,13.35676 100.19132,13.60996 98.97532,13.60996 C96.93292,13.60996 94.86132,11.64516 94.86132,9.05676 C94.86132,6.46556 96.93292,4.50076 98.97532,4.50076 C100.19132,4.50076 101.17652,4.75476 101.97652,5.49316 C102.10852,5.61436 102.29412,5.60876 102.39292,5.56116 L104.03252,4.69196 C104.14532,4.63156 104.13132,4.46476 104.07412,4.40836 C103.53212,3.69276 101.98332,2.17716 98.85052,2.17716 C97.54372,2.17796 95.89692,2.65956 94.55732,3.75076 C93.21972,4.83996 92.20252,6.55036 92.20412,8.96196 L92.20412,9.15236 Z" id="Fill-12" fill="#FFFFFF"></path>
                    <path d="M115.78556,11.9008 L118.26876,5.8148 L120.26676,10.6692 C118.59236,10.9856 117.30956,11.3252 115.78556,11.9008 M124.96316,15.4768 L119.59636,2.626 C119.56996,2.5636 119.50956,2.5224 119.44116,2.5224 L117.16596,2.5224 C117.09756,2.5224 117.03596,2.5636 117.01036,2.626 L111.48716,15.4752 C111.46596,15.5268 111.47076,15.5876 111.50276,15.636 C111.53276,15.6828 111.58476,15.7132 111.64276,15.7132 L113.96236,15.7132 C114.11796,15.7132 114.24316,15.6024 114.30436,15.54 C116.49956,13.1368 119.91796,12.0036 120.69316,11.7668 L122.28156,15.6048 C122.30476,15.6696 122.36876,15.7132 122.43676,15.7132 L124.80756,15.7132 C124.86276,15.7132 124.91676,15.6828 124.94876,15.636 C124.97876,15.5876 124.98396,15.5292 124.96316,15.4768" id="Fill-14" fill="#FFFFFF"></path>
                    <path d="M62.98064,8.06476 C62.94784,8.03236 62.90504,8.01356 62.85944,8.01356 L59.06064,8.01356 C59.01544,8.01356 58.97264,8.03236 58.93984,8.06476 C58.90744,8.09476 58.88944,8.13876 58.88944,8.18436 L58.88944,10.14356 C58.88944,10.18876 58.90744,10.23316 58.93984,10.26396 C58.97264,10.29556 59.01544,10.31396 59.06064,10.31396 L60.38424,10.31396 L60.38424,13.09476 C59.75224,13.30596 58.83824,13.51476 57.82024,13.51476 C55.21784,13.51476 53.35424,12.19636 53.35424,9.15316 C53.35424,5.94316 55.40624,4.50076 57.51984,4.50076 C58.73544,4.50076 59.71904,4.75476 60.52064,5.49316 C60.65184,5.61436 60.83624,5.60956 60.93784,5.56236 L62.57504,4.69276 C62.68704,4.63156 62.67304,4.46476 62.61864,4.40836 C62.07384,3.69276 60.52744,2.17716 57.39264,2.17716 C56.08784,2.17796 54.43944,2.66076 53.10104,3.75156 C51.76384,4.84076 50.74704,6.55036 50.74904,8.96196 C50.74744,11.36556 51.60424,13.16036 52.87864,14.30396 C54.15264,15.44476 55.80384,15.93596 57.78464,15.93596 C60.52984,15.93596 62.94184,14.63836 62.95824,14.63196 C63.00224,14.59996 63.02864,14.54596 63.02864,14.49436 L63.02864,8.18436 C63.02864,8.13876 63.01184,8.09636 62.98064,8.06476" id="Fill-16" fill="#FFFFFF"></path>
                    <path d="M35.27188,0.27116 C33.95428,1.99756 31.10748,4.18196 28.34388,5.33636 C27.89468,5.52316 27.95908,5.73756 28.25028,5.81996 C28.54188,5.90356 32.30708,7.21276 32.57988,7.31356 C32.87628,7.42276 32.84108,7.42756 33.00308,7.25636 C34.88828,5.24996 35.50428,2.26716 35.49668,0.35476 C35.49668,0.35476 35.53588,0.11356 35.45148,0.11356 C35.41628,0.11356 35.36028,0.15476 35.27188,0.27116 M0.27588,3.92756 C-0.11372,3.98676 -0.07932,4.44396 0.30868,4.42476 C0.87188,4.39556 3.46548,4.33636 5.83228,4.55396 C8.55508,4.80316 11.20988,5.53196 13.26788,6.21756 C15.32548,6.90236 19.96788,9.48076 19.96788,9.48076 C19.96788,9.48076 14.37828,12.80356 12.73348,17.74316 C12.64628,18.00836 12.78668,18.08796 13.10908,17.88796 C20.24828,13.42916 25.22828,10.70676 34.12548,8.91836 C34.68868,8.80516 34.62388,8.73156 34.12548,8.60836 C33.62588,8.48236 31.87988,8.16996 27.32748,6.48676 C22.77468,4.80316 18.40868,3.25516 13.35748,2.86996 C12.61868,2.81316 11.85588,2.78836 11.08548,2.78836 C5.89868,2.78876 0.42348,3.90516 0.27588,3.92756" id="Fill-18" fill="#FACC4F"></path>
                </g>
            </g>
        </g>
    </g>
</svg>